<?xml version="1.0" encoding="utf-8" standalone="no"?>
<!DOCTYPE svg PUBLIC "-//W3C//DTD SVG 1.1//EN"
  "http://www.w3.org/Graphics/SVG/1.1/DTD/svg11.dtd">
<svg xmlns:xlink="http://www.w3.org/1999/xlink" width="936pt" height="288pt" viewBox="0 0 936 288" xmlns="http://www.w3.org/2000/svg" version="1.1">
 <metadata>
  <rdf:RDF xmlns:dc="http://purl.org/dc/elements/1.1/" xmlns:cc="http://creativecommons.org/ns#" xmlns:rdf="http://www.w3.org/1999/02/22-rdf-syntax-ns#">
   <cc:Work>
    <dc:type rdf:resource="http://purl.org/dc/dcmitype/StillImage"/>
    <dc:date>2026-07-16T04:50:26.580211</dc:date>
    <dc:format>image/svg+xml</dc:format>
    <dc:creator>
     <cc:Agent>
      <dc:title>Matplotlib v3.11.0, https://matplotlib.org/</dc:title>
     </cc:Agent>
    </dc:creator>
   </cc:Work>
  </rdf:RDF>
 </metadata>
 <defs>
  <style type="text/css">*{stroke-linejoin: round; stroke-linecap: butt}</style>
 </defs>
 <g id="figure_1">
  <g id="patch_1">
   <path d="M 0 288 
L 936 288 
L 936 0 
L 0 0 
z
" style="fill: #ffffff"/>
  </g>
  <g id="axes_1">
   <g id="patch_2">
    <path d="M 47.962344 244.115312 
L 310.32 244.115312 
L 310.32 47.282344 
L 47.962344 47.282344 
z
" style="fill: #ffffff"/>
   </g>
   <g id="matplotlib.axis_1">
    <g id="xtick_1">
     <g id="line2d_1">
      <defs>
       <path id="m3a37ebcec2" d="M 0 0 
L 0 3.5 
" style="stroke: #000000; stroke-width: 0.8"/>
      </defs>
      <g>
       <use xlink:href="#m3a37ebcec2" x="59.887692" y="244.115312" style="stroke: #000000; stroke-width: 0.8"/>
      </g>
     </g>
     <g id="text_1">
      <!-- $\mathdefault{10^{0}}$ -->
      <g transform="translate(51.087692 260.515312) scale(0.1 -0.1)">
       <defs>
        <path id="DejaVuSans-14" d="M 794 531 
L 1825 531 
L 1825 4091 
L 703 3866 
L 703 4441 
L 1819 4666 
L 2450 4666 
L 2450 531 
L 3481 531 
L 3481 0 
L 794 0 
L 794 531 
z
" transform="scale(0.015625)"/>
        <path id="DejaVuSans-13" d="M 2034 4250 
Q 1547 4250 1301 3770 
Q 1056 3291 1056 2328 
Q 1056 1369 1301 889 
Q 1547 409 2034 409 
Q 2525 409 2770 889 
Q 3016 1369 3016 2328 
Q 3016 3291 2770 3770 
Q 2525 4250 2034 4250 
z
M 2034 4750 
Q 2819 4750 3233 4129 
Q 3647 3509 3647 2328 
Q 3647 1150 3233 529 
Q 2819 -91 2034 -91 
Q 1250 -91 836 529 
Q 422 1150 422 2328 
Q 422 3509 836 4129 
Q 1250 4750 2034 4750 
z
" transform="scale(0.015625)"/>
       </defs>
       <use xlink:href="#DejaVuSans-14" transform="translate(0 0.746875)"/>
       <use xlink:href="#DejaVuSans-13" transform="translate(63.623047 0.746875)"/>
       <use xlink:href="#DejaVuSans-13" transform="translate(128.203125 42.046875) scale(0.7)"/>
      </g>
     </g>
    </g>
    <g id="xtick_2">
     <g id="line2d_2">
      <g>
       <use xlink:href="#m3a37ebcec2" x="118.93379" y="244.115312" style="stroke: #000000; stroke-width: 0.8"/>
      </g>
     </g>
     <g id="text_2">
      <!-- $\mathdefault{10^{1}}$ -->
      <g transform="translate(110.13379 260.415312) scale(0.1 -0.1)">
       <use xlink:href="#DejaVuSans-14" transform="translate(0 0.665625)"/>
       <use xlink:href="#DejaVuSans-13" transform="translate(63.623047 0.665625)"/>
       <use xlink:href="#DejaVuSans-14" transform="translate(128.203125 41.965625) scale(0.7)"/>
      </g>
     </g>
    </g>
    <g id="xtick_3">
     <g id="line2d_3">
      <g>
       <use xlink:href="#m3a37ebcec2" x="177.979889" y="244.115312" style="stroke: #000000; stroke-width: 0.8"/>
      </g>
     </g>
     <g id="text_3">
      <!-- $\mathdefault{10^{2}}$ -->
      <g transform="translate(169.179889 260.515312) scale(0.1 -0.1)">
       <defs>
        <path id="DejaVuSans-15" d="M 1228 531 
L 3431 531 
L 3431 0 
L 469 0 
L 469 531 
Q 828 903 1448 1529 
Q 2069 2156 2228 2338 
Q 2531 2678 2651 2914 
Q 2772 3150 2772 3378 
Q 2772 3750 2511 3984 
Q 2250 4219 1831 4219 
Q 1534 4219 1204 4116 
Q 875 4013 500 3803 
L 500 4441 
Q 881 4594 1212 4672 
Q 1544 4750 1819 4750 
Q 2544 4750 2975 4387 
Q 3406 4025 3406 3419 
Q 3406 3131 3298 2873 
Q 3191 2616 2906 2266 
Q 2828 2175 2409 1742 
Q 1991 1309 1228 531 
z
" transform="scale(0.015625)"/>
       </defs>
       <use xlink:href="#DejaVuSans-14" transform="translate(0 0.746875)"/>
       <use xlink:href="#DejaVuSans-13" transform="translate(63.623047 0.746875)"/>
       <use xlink:href="#DejaVuSans-15" transform="translate(128.203125 42.046875) scale(0.7)"/>
      </g>
     </g>
    </g>
    <g id="xtick_4">
     <g id="line2d_4">
      <g>
       <use xlink:href="#m3a37ebcec2" x="237.025988" y="244.115312" style="stroke: #000000; stroke-width: 0.8"/>
      </g>
     </g>
     <g id="text_4">
      <!-- $\mathdefault{10^{3}}$ -->
      <g transform="translate(228.225988 260.515312) scale(0.1 -0.1)">
       <defs>
        <path id="DejaVuSans-16" d="M 2597 2516 
Q 3050 2419 3304 2112 
Q 3559 1806 3559 1356 
Q 3559 666 3084 287 
Q 2609 -91 1734 -91 
Q 1441 -91 1130 -33 
Q 819 25 488 141 
L 488 750 
Q 750 597 1062 519 
Q 1375 441 1716 441 
Q 2309 441 2620 675 
Q 2931 909 2931 1356 
Q 2931 1769 2642 2001 
Q 2353 2234 1838 2234 
L 1294 2234 
L 1294 2753 
L 1863 2753 
Q 2328 2753 2575 2939 
Q 2822 3125 2822 3475 
Q 2822 3834 2567 4026 
Q 2313 4219 1838 4219 
Q 1578 4219 1281 4162 
Q 984 4106 628 3988 
L 628 4550 
Q 988 4650 1302 4700 
Q 1616 4750 1894 4750 
Q 2613 4750 3031 4423 
Q 3450 4097 3450 3541 
Q 3450 3153 3228 2886 
Q 3006 2619 2597 2516 
z
" transform="scale(0.015625)"/>
       </defs>
       <use xlink:href="#DejaVuSans-14" transform="translate(0 0.746875)"/>
       <use xlink:href="#DejaVuSans-13" transform="translate(63.623047 0.746875)"/>
       <use xlink:href="#DejaVuSans-16" transform="translate(128.203125 42.046875) scale(0.7)"/>
      </g>
     </g>
    </g>
    <g id="xtick_5">
     <g id="line2d_5">
      <g>
       <use xlink:href="#m3a37ebcec2" x="296.072086" y="244.115312" style="stroke: #000000; stroke-width: 0.8"/>
      </g>
     </g>
     <g id="text_5">
      <!-- $\mathdefault{10^{4}}$ -->
      <g transform="translate(287.272086 260.415312) scale(0.1 -0.1)">
       <defs>
        <path id="DejaVuSans-17" d="M 2419 4116 
L 825 1625 
L 2419 1625 
L 2419 4116 
z
M 2253 4666 
L 3047 4666 
L 3047 1625 
L 3713 1625 
L 3713 1100 
L 3047 1100 
L 3047 0 
L 2419 0 
L 2419 1100 
L 313 1100 
L 313 1709 
L 2253 4666 
z
" transform="scale(0.015625)"/>
       </defs>
       <use xlink:href="#DejaVuSans-14" transform="translate(0 0.665625)"/>
       <use xlink:href="#DejaVuSans-13" transform="translate(63.623047 0.665625)"/>
       <use xlink:href="#DejaVuSans-17" transform="translate(128.203125 41.965625) scale(0.7)"/>
      </g>
     </g>
    </g>
    <g id="xtick_6">
     <g id="line2d_6">
      <defs>
       <path id="me1e893971b" d="M 0 0 
L 0 2 
" style="stroke: #000000; stroke-width: 0.6"/>
      </defs>
      <g>
       <use xlink:href="#me1e893971b" x="50.741335" y="244.115312" style="stroke: #000000; stroke-width: 0.6"/>
      </g>
     </g>
    </g>
    <g id="xtick_7">
     <g id="line2d_7">
      <g>
       <use xlink:href="#me1e893971b" x="54.165534" y="244.115312" style="stroke: #000000; stroke-width: 0.6"/>
      </g>
     </g>
    </g>
    <g id="xtick_8">
     <g id="line2d_8">
      <g>
       <use xlink:href="#me1e893971b" x="57.18589" y="244.115312" style="stroke: #000000; stroke-width: 0.6"/>
      </g>
     </g>
    </g>
    <g id="xtick_9">
     <g id="line2d_9">
      <g>
       <use xlink:href="#me1e893971b" x="77.662339" y="244.115312" style="stroke: #000000; stroke-width: 0.6"/>
      </g>
     </g>
    </g>
    <g id="xtick_10">
     <g id="line2d_10">
      <g>
       <use xlink:href="#me1e893971b" x="88.05984" y="244.115312" style="stroke: #000000; stroke-width: 0.6"/>
      </g>
     </g>
    </g>
    <g id="xtick_11">
     <g id="line2d_11">
      <g>
       <use xlink:href="#me1e893971b" x="95.436985" y="244.115312" style="stroke: #000000; stroke-width: 0.6"/>
      </g>
     </g>
    </g>
    <g id="xtick_12">
     <g id="line2d_12">
      <g>
       <use xlink:href="#me1e893971b" x="101.159144" y="244.115312" style="stroke: #000000; stroke-width: 0.6"/>
      </g>
     </g>
    </g>
    <g id="xtick_13">
     <g id="line2d_13">
      <g>
       <use xlink:href="#me1e893971b" x="105.834487" y="244.115312" style="stroke: #000000; stroke-width: 0.6"/>
      </g>
     </g>
    </g>
    <g id="xtick_14">
     <g id="line2d_14">
      <g>
       <use xlink:href="#me1e893971b" x="109.787434" y="244.115312" style="stroke: #000000; stroke-width: 0.6"/>
      </g>
     </g>
    </g>
    <g id="xtick_15">
     <g id="line2d_15">
      <g>
       <use xlink:href="#me1e893971b" x="113.211632" y="244.115312" style="stroke: #000000; stroke-width: 0.6"/>
      </g>
     </g>
    </g>
    <g id="xtick_16">
     <g id="line2d_16">
      <g>
       <use xlink:href="#me1e893971b" x="116.231989" y="244.115312" style="stroke: #000000; stroke-width: 0.6"/>
      </g>
     </g>
    </g>
    <g id="xtick_17">
     <g id="line2d_17">
      <g>
       <use xlink:href="#me1e893971b" x="136.708437" y="244.115312" style="stroke: #000000; stroke-width: 0.6"/>
      </g>
     </g>
    </g>
    <g id="xtick_18">
     <g id="line2d_18">
      <g>
       <use xlink:href="#me1e893971b" x="147.105939" y="244.115312" style="stroke: #000000; stroke-width: 0.6"/>
      </g>
     </g>
    </g>
    <g id="xtick_19">
     <g id="line2d_19">
      <g>
       <use xlink:href="#me1e893971b" x="154.483084" y="244.115312" style="stroke: #000000; stroke-width: 0.6"/>
      </g>
     </g>
    </g>
    <g id="xtick_20">
     <g id="line2d_20">
      <g>
       <use xlink:href="#me1e893971b" x="160.205242" y="244.115312" style="stroke: #000000; stroke-width: 0.6"/>
      </g>
     </g>
    </g>
    <g id="xtick_21">
     <g id="line2d_21">
      <g>
       <use xlink:href="#me1e893971b" x="164.880586" y="244.115312" style="stroke: #000000; stroke-width: 0.6"/>
      </g>
     </g>
    </g>
    <g id="xtick_22">
     <g id="line2d_22">
      <g>
       <use xlink:href="#me1e893971b" x="168.833533" y="244.115312" style="stroke: #000000; stroke-width: 0.6"/>
      </g>
     </g>
    </g>
    <g id="xtick_23">
     <g id="line2d_23">
      <g>
       <use xlink:href="#me1e893971b" x="172.257731" y="244.115312" style="stroke: #000000; stroke-width: 0.6"/>
      </g>
     </g>
    </g>
    <g id="xtick_24">
     <g id="line2d_24">
      <g>
       <use xlink:href="#me1e893971b" x="175.278088" y="244.115312" style="stroke: #000000; stroke-width: 0.6"/>
      </g>
     </g>
    </g>
    <g id="xtick_25">
     <g id="line2d_25">
      <g>
       <use xlink:href="#me1e893971b" x="195.754536" y="244.115312" style="stroke: #000000; stroke-width: 0.6"/>
      </g>
     </g>
    </g>
    <g id="xtick_26">
     <g id="line2d_26">
      <g>
       <use xlink:href="#me1e893971b" x="206.152038" y="244.115312" style="stroke: #000000; stroke-width: 0.6"/>
      </g>
     </g>
    </g>
    <g id="xtick_27">
     <g id="line2d_27">
      <g>
       <use xlink:href="#me1e893971b" x="213.529183" y="244.115312" style="stroke: #000000; stroke-width: 0.6"/>
      </g>
     </g>
    </g>
    <g id="xtick_28">
     <g id="line2d_28">
      <g>
       <use xlink:href="#me1e893971b" x="219.251341" y="244.115312" style="stroke: #000000; stroke-width: 0.6"/>
      </g>
     </g>
    </g>
    <g id="xtick_29">
     <g id="line2d_29">
      <g>
       <use xlink:href="#me1e893971b" x="223.926684" y="244.115312" style="stroke: #000000; stroke-width: 0.6"/>
      </g>
     </g>
    </g>
    <g id="xtick_30">
     <g id="line2d_30">
      <g>
       <use xlink:href="#me1e893971b" x="227.879631" y="244.115312" style="stroke: #000000; stroke-width: 0.6"/>
      </g>
     </g>
    </g>
    <g id="xtick_31">
     <g id="line2d_31">
      <g>
       <use xlink:href="#me1e893971b" x="231.303829" y="244.115312" style="stroke: #000000; stroke-width: 0.6"/>
      </g>
     </g>
    </g>
    <g id="xtick_32">
     <g id="line2d_32">
      <g>
       <use xlink:href="#me1e893971b" x="234.324186" y="244.115312" style="stroke: #000000; stroke-width: 0.6"/>
      </g>
     </g>
    </g>
    <g id="xtick_33">
     <g id="line2d_33">
      <g>
       <use xlink:href="#me1e893971b" x="254.800634" y="244.115312" style="stroke: #000000; stroke-width: 0.6"/>
      </g>
     </g>
    </g>
    <g id="xtick_34">
     <g id="line2d_34">
      <g>
       <use xlink:href="#me1e893971b" x="265.198136" y="244.115312" style="stroke: #000000; stroke-width: 0.6"/>
      </g>
     </g>
    </g>
    <g id="xtick_35">
     <g id="line2d_35">
      <g>
       <use xlink:href="#me1e893971b" x="272.575281" y="244.115312" style="stroke: #000000; stroke-width: 0.6"/>
      </g>
     </g>
    </g>
    <g id="xtick_36">
     <g id="line2d_36">
      <g>
       <use xlink:href="#me1e893971b" x="278.297439" y="244.115312" style="stroke: #000000; stroke-width: 0.6"/>
      </g>
     </g>
    </g>
    <g id="xtick_37">
     <g id="line2d_37">
      <g>
       <use xlink:href="#me1e893971b" x="282.972783" y="244.115312" style="stroke: #000000; stroke-width: 0.6"/>
      </g>
     </g>
    </g>
    <g id="xtick_38">
     <g id="line2d_38">
      <g>
       <use xlink:href="#me1e893971b" x="286.92573" y="244.115312" style="stroke: #000000; stroke-width: 0.6"/>
      </g>
     </g>
    </g>
    <g id="xtick_39">
     <g id="line2d_39">
      <g>
       <use xlink:href="#me1e893971b" x="290.349928" y="244.115312" style="stroke: #000000; stroke-width: 0.6"/>
      </g>
     </g>
    </g>
    <g id="xtick_40">
     <g id="line2d_40">
      <g>
       <use xlink:href="#me1e893971b" x="293.370285" y="244.115312" style="stroke: #000000; stroke-width: 0.6"/>
      </g>
     </g>
    </g>
    <g id="text_6">
     <!-- PLUTO unitstotal (log) -->
     <g transform="translate(124.513828 274.516094) scale(0.1 -0.1)">
      <defs>
       <path id="DejaVuSans-33" d="M 1259 4147 
L 1259 2394 
L 2053 2394 
Q 2494 2394 2734 2622 
Q 2975 2850 2975 3272 
Q 2975 3691 2734 3919 
Q 2494 4147 2053 4147 
L 1259 4147 
z
M 628 4666 
L 2053 4666 
Q 2838 4666 3239 4311 
Q 3641 3956 3641 3272 
Q 3641 2581 3239 2228 
Q 2838 1875 2053 1875 
L 1259 1875 
L 1259 0 
L 628 0 
L 628 4666 
z
" transform="scale(0.015625)"/>
       <path id="DejaVuSans-2f" d="M 628 4666 
L 1259 4666 
L 1259 531 
L 3531 531 
L 3531 0 
L 628 0 
L 628 4666 
z
" transform="scale(0.015625)"/>
       <path id="DejaVuSans-38" d="M 556 4666 
L 1191 4666 
L 1191 1831 
Q 1191 1081 1462 751 
Q 1734 422 2344 422 
Q 2950 422 3222 751 
Q 3494 1081 3494 1831 
L 3494 4666 
L 4128 4666 
L 4128 1753 
Q 4128 841 3676 375 
Q 3225 -91 2344 -91 
Q 1459 -91 1007 375 
Q 556 841 556 1753 
L 556 4666 
z
" transform="scale(0.015625)"/>
       <path id="DejaVuSans-37" d="M -19 4666 
L 3928 4666 
L 3928 4134 
L 2272 4134 
L 2272 0 
L 1638 0 
L 1638 4134 
L -19 4134 
L -19 4666 
z
" transform="scale(0.015625)"/>
       <path id="DejaVuSans-32" d="M 2522 4238 
Q 1834 4238 1429 3725 
Q 1025 3213 1025 2328 
Q 1025 1447 1429 934 
Q 1834 422 2522 422 
Q 3209 422 3611 934 
Q 4013 1447 4013 2328 
Q 4013 3213 3611 3725 
Q 3209 4238 2522 4238 
z
M 2522 4750 
Q 3503 4750 4090 4092 
Q 4678 3434 4678 2328 
Q 4678 1225 4090 567 
Q 3503 -91 2522 -91 
Q 1538 -91 948 565 
Q 359 1222 359 2328 
Q 359 3434 948 4092 
Q 1538 4750 2522 4750 
z
" transform="scale(0.015625)"/>
       <path id="DejaVuSans-3" transform="scale(0.015625)"/>
       <path id="DejaVuSans-58" d="M 544 1381 
L 544 3500 
L 1119 3500 
L 1119 1403 
Q 1119 906 1312 657 
Q 1506 409 1894 409 
Q 2359 409 2629 706 
Q 2900 1003 2900 1516 
L 2900 3500 
L 3475 3500 
L 3475 0 
L 2900 0 
L 2900 538 
Q 2691 219 2414 64 
Q 2138 -91 1772 -91 
Q 1169 -91 856 284 
Q 544 659 544 1381 
z
M 1991 3584 
L 1991 3584 
z
" transform="scale(0.015625)"/>
       <path id="DejaVuSans-51" d="M 3513 2113 
L 3513 0 
L 2938 0 
L 2938 2094 
Q 2938 2591 2744 2837 
Q 2550 3084 2163 3084 
Q 1697 3084 1428 2787 
Q 1159 2491 1159 1978 
L 1159 0 
L 581 0 
L 581 3500 
L 1159 3500 
L 1159 2956 
Q 1366 3272 1645 3428 
Q 1925 3584 2291 3584 
Q 2894 3584 3203 3211 
Q 3513 2838 3513 2113 
z
" transform="scale(0.015625)"/>
       <path id="DejaVuSans-4c" d="M 603 3500 
L 1178 3500 
L 1178 0 
L 603 0 
L 603 3500 
z
M 603 4863 
L 1178 4863 
L 1178 4134 
L 603 4134 
L 603 4863 
z
" transform="scale(0.015625)"/>
       <path id="DejaVuSans-57" d="M 1172 4494 
L 1172 3500 
L 2356 3500 
L 2356 3053 
L 1172 3053 
L 1172 1153 
Q 1172 725 1289 603 
Q 1406 481 1766 481 
L 2356 481 
L 2356 0 
L 1766 0 
Q 1100 0 847 248 
Q 594 497 594 1153 
L 594 3053 
L 172 3053 
L 172 3500 
L 594 3500 
L 594 4494 
L 1172 4494 
z
" transform="scale(0.015625)"/>
       <path id="DejaVuSans-56" d="M 2834 3397 
L 2834 2853 
Q 2591 2978 2328 3040 
Q 2066 3103 1784 3103 
Q 1356 3103 1142 2972 
Q 928 2841 928 2578 
Q 928 2378 1081 2264 
Q 1234 2150 1697 2047 
L 1894 2003 
Q 2506 1872 2764 1633 
Q 3022 1394 3022 966 
Q 3022 478 2636 193 
Q 2250 -91 1575 -91 
Q 1294 -91 989 -36 
Q 684 19 347 128 
L 347 722 
Q 666 556 975 473 
Q 1284 391 1588 391 
Q 1994 391 2212 530 
Q 2431 669 2431 922 
Q 2431 1156 2273 1281 
Q 2116 1406 1581 1522 
L 1381 1569 
Q 847 1681 609 1914 
Q 372 2147 372 2553 
Q 372 3047 722 3315 
Q 1072 3584 1716 3584 
Q 2034 3584 2315 3537 
Q 2597 3491 2834 3397 
z
" transform="scale(0.015625)"/>
       <path id="DejaVuSans-52" d="M 1959 3097 
Q 1497 3097 1228 2736 
Q 959 2375 959 1747 
Q 959 1119 1226 758 
Q 1494 397 1959 397 
Q 2419 397 2687 759 
Q 2956 1122 2956 1747 
Q 2956 2369 2687 2733 
Q 2419 3097 1959 3097 
z
M 1959 3584 
Q 2709 3584 3137 3096 
Q 3566 2609 3566 1747 
Q 3566 888 3137 398 
Q 2709 -91 1959 -91 
Q 1206 -91 779 398 
Q 353 888 353 1747 
Q 353 2609 779 3096 
Q 1206 3584 1959 3584 
z
" transform="scale(0.015625)"/>
       <path id="DejaVuSans-44" d="M 2194 1759 
Q 1497 1759 1228 1600 
Q 959 1441 959 1056 
Q 959 750 1161 570 
Q 1363 391 1709 391 
Q 2188 391 2477 730 
Q 2766 1069 2766 1631 
L 2766 1759 
L 2194 1759 
z
M 3341 1997 
L 3341 0 
L 2766 0 
L 2766 531 
Q 2569 213 2275 61 
Q 1981 -91 1556 -91 
Q 1019 -91 701 211 
Q 384 513 384 1019 
Q 384 1609 779 1909 
Q 1175 2209 1959 2209 
L 2766 2209 
L 2766 2266 
Q 2766 2663 2505 2880 
Q 2244 3097 1772 3097 
Q 1472 3097 1187 3025 
Q 903 2953 641 2809 
L 641 3341 
Q 956 3463 1253 3523 
Q 1550 3584 1831 3584 
Q 2591 3584 2966 3190 
Q 3341 2797 3341 1997 
z
" transform="scale(0.015625)"/>
       <path id="DejaVuSans-4f" d="M 603 4863 
L 1178 4863 
L 1178 0 
L 603 0 
L 603 4863 
z
" transform="scale(0.015625)"/>
       <path id="DejaVuSans-b" d="M 1984 4856 
Q 1566 4138 1362 3434 
Q 1159 2731 1159 2009 
Q 1159 1288 1364 580 
Q 1569 -128 1984 -844 
L 1484 -844 
Q 1016 -109 783 600 
Q 550 1309 550 2009 
Q 550 2706 781 3412 
Q 1013 4119 1484 4856 
L 1984 4856 
z
" transform="scale(0.015625)"/>
       <path id="DejaVuSans-4a" d="M 2906 1791 
Q 2906 2416 2648 2759 
Q 2391 3103 1925 3103 
Q 1463 3103 1205 2759 
Q 947 2416 947 1791 
Q 947 1169 1205 825 
Q 1463 481 1925 481 
Q 2391 481 2648 825 
Q 2906 1169 2906 1791 
z
M 3481 434 
Q 3481 -459 3084 -895 
Q 2688 -1331 1869 -1331 
Q 1566 -1331 1297 -1286 
Q 1028 -1241 775 -1147 
L 775 -588 
Q 1028 -725 1275 -790 
Q 1522 -856 1778 -856 
Q 2344 -856 2625 -561 
Q 2906 -266 2906 331 
L 2906 616 
Q 2728 306 2450 153 
Q 2172 0 1784 0 
Q 1141 0 747 490 
Q 353 981 353 1791 
Q 353 2603 747 3093 
Q 1141 3584 1784 3584 
Q 2172 3584 2450 3431 
Q 2728 3278 2906 2969 
L 2906 3500 
L 3481 3500 
L 3481 434 
z
" transform="scale(0.015625)"/>
       <path id="DejaVuSans-c" d="M 513 4856 
L 1013 4856 
Q 1481 4119 1714 3412 
Q 1947 2706 1947 2009 
Q 1947 1309 1714 600 
Q 1481 -109 1013 -844 
L 513 -844 
Q 928 -128 1133 580 
Q 1338 1288 1338 2009 
Q 1338 2731 1133 3434 
Q 928 4138 513 4856 
z
" transform="scale(0.015625)"/>
      </defs>
      <use xlink:href="#DejaVuSans-33"/>
      <use xlink:href="#DejaVuSans-2f" transform="translate(60.296875 0)"/>
      <use xlink:href="#DejaVuSans-38" transform="translate(111.03125 0)"/>
      <use xlink:href="#DejaVuSans-37" transform="translate(184.21875 0)"/>
      <use xlink:href="#DejaVuSans-32" transform="translate(245.296875 0)"/>
      <use xlink:href="#DejaVuSans-3" transform="translate(324.015625 0)"/>
      <use xlink:href="#DejaVuSans-58" transform="translate(355.796875 0)"/>
      <use xlink:href="#DejaVuSans-51" transform="translate(419.171875 0)"/>
      <use xlink:href="#DejaVuSans-4c" transform="translate(482.546875 0)"/>
      <use xlink:href="#DejaVuSans-57" transform="translate(510.328125 0)"/>
      <use xlink:href="#DejaVuSans-56" transform="translate(549.53125 0)"/>
      <use xlink:href="#DejaVuSans-57" transform="translate(601.625 0)"/>
      <use xlink:href="#DejaVuSans-52" transform="translate(640.828125 0)"/>
      <use xlink:href="#DejaVuSans-57" transform="translate(702.015625 0)"/>
      <use xlink:href="#DejaVuSans-44" transform="translate(741.21875 0)"/>
      <use xlink:href="#DejaVuSans-4f" transform="translate(802.5 0)"/>
      <use xlink:href="#DejaVuSans-3" transform="translate(830.28125 0)"/>
      <use xlink:href="#DejaVuSans-b" transform="translate(862.0625 0)"/>
      <use xlink:href="#DejaVuSans-4f" transform="translate(901.078125 0)"/>
      <use xlink:href="#DejaVuSans-52" transform="translate(928.859375 0)"/>
      <use xlink:href="#DejaVuSans-4a" transform="translate(990.046875 0)"/>
      <use xlink:href="#DejaVuSans-c" transform="translate(1053.53125 0)"/>
     </g>
    </g>
   </g>
   <g id="matplotlib.axis_2">
    <g id="ytick_1">
     <g id="line2d_41">
      <defs>
       <path id="m8fe4672690" d="M 0 0 
L -3.5 0 
" style="stroke: #000000; stroke-width: 0.8"/>
      </defs>
      <g>
       <use xlink:href="#m8fe4672690" x="47.962344" y="244.115312" style="stroke: #000000; stroke-width: 0.8"/>
      </g>
     </g>
     <g id="text_7">
      <!-- 0.0 -->
      <g transform="translate(25.059219 247.914141) scale(0.1 -0.1)">
       <defs>
        <path id="DejaVuSans-11" d="M 684 794 
L 1344 794 
L 1344 0 
L 684 0 
L 684 794 
z
" transform="scale(0.015625)"/>
       </defs>
       <use xlink:href="#DejaVuSans-13"/>
       <use xlink:href="#DejaVuSans-11" transform="translate(63.625 0)"/>
       <use xlink:href="#DejaVuSans-13" transform="translate(95.40625 0)"/>
      </g>
     </g>
    </g>
    <g id="ytick_2">
     <g id="line2d_42">
      <g>
       <use xlink:href="#m8fe4672690" x="47.962344" y="209.0766" style="stroke: #000000; stroke-width: 0.8"/>
      </g>
     </g>
     <g id="text_8">
      <!-- 0.1 -->
      <g transform="translate(25.059219 212.875428) scale(0.1 -0.1)">
       <use xlink:href="#DejaVuSans-13"/>
       <use xlink:href="#DejaVuSans-11" transform="translate(63.625 0)"/>
       <use xlink:href="#DejaVuSans-14" transform="translate(95.40625 0)"/>
      </g>
     </g>
    </g>
    <g id="ytick_3">
     <g id="line2d_43">
      <g>
       <use xlink:href="#m8fe4672690" x="47.962344" y="174.037888" style="stroke: #000000; stroke-width: 0.8"/>
      </g>
     </g>
     <g id="text_9">
      <!-- 0.2 -->
      <g transform="translate(25.059219 177.836716) scale(0.1 -0.1)">
       <use xlink:href="#DejaVuSans-13"/>
       <use xlink:href="#DejaVuSans-11" transform="translate(63.625 0)"/>
       <use xlink:href="#DejaVuSans-15" transform="translate(95.40625 0)"/>
      </g>
     </g>
    </g>
    <g id="ytick_4">
     <g id="line2d_44">
      <g>
       <use xlink:href="#m8fe4672690" x="47.962344" y="138.999176" style="stroke: #000000; stroke-width: 0.8"/>
      </g>
     </g>
     <g id="text_10">
      <!-- 0.3 -->
      <g transform="translate(25.059219 142.798004) scale(0.1 -0.1)">
       <use xlink:href="#DejaVuSans-13"/>
       <use xlink:href="#DejaVuSans-11" transform="translate(63.625 0)"/>
       <use xlink:href="#DejaVuSans-16" transform="translate(95.40625 0)"/>
      </g>
     </g>
    </g>
    <g id="ytick_5">
     <g id="line2d_45">
      <g>
       <use xlink:href="#m8fe4672690" x="47.962344" y="103.960464" style="stroke: #000000; stroke-width: 0.8"/>
      </g>
     </g>
     <g id="text_11">
      <!-- 0.4 -->
      <g transform="translate(25.059219 107.759292) scale(0.1 -0.1)">
       <use xlink:href="#DejaVuSans-13"/>
       <use xlink:href="#DejaVuSans-11" transform="translate(63.625 0)"/>
       <use xlink:href="#DejaVuSans-17" transform="translate(95.40625 0)"/>
      </g>
     </g>
    </g>
    <g id="ytick_6">
     <g id="line2d_46">
      <g>
       <use xlink:href="#m8fe4672690" x="47.962344" y="68.921751" style="stroke: #000000; stroke-width: 0.8"/>
      </g>
     </g>
     <g id="text_12">
      <!-- 0.5 -->
      <g transform="translate(25.059219 72.72058) scale(0.1 -0.1)">
       <defs>
        <path id="DejaVuSans-18" d="M 691 4666 
L 3169 4666 
L 3169 4134 
L 1269 4134 
L 1269 2991 
Q 1406 3038 1543 3061 
Q 1681 3084 1819 3084 
Q 2600 3084 3056 2656 
Q 3513 2228 3513 1497 
Q 3513 744 3044 326 
Q 2575 -91 1722 -91 
Q 1428 -91 1123 -41 
Q 819 9 494 109 
L 494 744 
Q 775 591 1075 516 
Q 1375 441 1709 441 
Q 2250 441 2565 725 
Q 2881 1009 2881 1497 
Q 2881 1984 2565 2268 
Q 2250 2553 1709 2553 
Q 1456 2553 1204 2497 
Q 953 2441 691 2322 
L 691 4666 
z
" transform="scale(0.015625)"/>
       </defs>
       <use xlink:href="#DejaVuSans-13"/>
       <use xlink:href="#DejaVuSans-11" transform="translate(63.625 0)"/>
       <use xlink:href="#DejaVuSans-18" transform="translate(95.40625 0)"/>
      </g>
     </g>
    </g>
    <g id="text_13">
     <!-- density -->
     <g transform="translate(18.656875 164.031641) rotate(-90) scale(0.1 -0.1)">
      <defs>
       <path id="DejaVuSans-47" d="M 2906 2969 
L 2906 4863 
L 3481 4863 
L 3481 0 
L 2906 0 
L 2906 525 
Q 2725 213 2448 61 
Q 2172 -91 1784 -91 
Q 1150 -91 751 415 
Q 353 922 353 1747 
Q 353 2572 751 3078 
Q 1150 3584 1784 3584 
Q 2172 3584 2448 3432 
Q 2725 3281 2906 2969 
z
M 947 1747 
Q 947 1113 1208 752 
Q 1469 391 1925 391 
Q 2381 391 2643 752 
Q 2906 1113 2906 1747 
Q 2906 2381 2643 2742 
Q 2381 3103 1925 3103 
Q 1469 3103 1208 2742 
Q 947 2381 947 1747 
z
" transform="scale(0.015625)"/>
       <path id="DejaVuSans-48" d="M 3597 1894 
L 3597 1613 
L 953 1613 
Q 991 1019 1311 708 
Q 1631 397 2203 397 
Q 2534 397 2845 478 
Q 3156 559 3463 722 
L 3463 178 
Q 3153 47 2828 -22 
Q 2503 -91 2169 -91 
Q 1331 -91 842 396 
Q 353 884 353 1716 
Q 353 2575 817 3079 
Q 1281 3584 2069 3584 
Q 2775 3584 3186 3129 
Q 3597 2675 3597 1894 
z
M 3022 2063 
Q 3016 2534 2758 2815 
Q 2500 3097 2075 3097 
Q 1594 3097 1305 2825 
Q 1016 2553 972 2059 
L 3022 2063 
z
" transform="scale(0.015625)"/>
       <path id="DejaVuSans-5c" d="M 2059 -325 
Q 1816 -950 1584 -1140 
Q 1353 -1331 966 -1331 
L 506 -1331 
L 506 -850 
L 844 -850 
Q 1081 -850 1212 -737 
Q 1344 -625 1503 -206 
L 1606 56 
L 191 3500 
L 800 3500 
L 1894 763 
L 2988 3500 
L 3597 3500 
L 2059 -325 
z
" transform="scale(0.015625)"/>
      </defs>
      <use xlink:href="#DejaVuSans-47"/>
      <use xlink:href="#DejaVuSans-48" transform="translate(63.484375 0)"/>
      <use xlink:href="#DejaVuSans-51" transform="translate(125.015625 0)"/>
      <use xlink:href="#DejaVuSans-56" transform="translate(188.390625 0)"/>
      <use xlink:href="#DejaVuSans-4c" transform="translate(240.484375 0)"/>
      <use xlink:href="#DejaVuSans-57" transform="translate(268.265625 0)"/>
      <use xlink:href="#DejaVuSans-5c" transform="translate(307.46875 0)"/>
     </g>
    </g>
   </g>
   <g id="patch_3">
    <path d="M 59.887692 244.115312 
L 59.887692 164.087758 
L 66.003255 164.087758 
L 66.003255 244.115312 
L 72.118818 244.115312 
L 72.118818 110.058337 
L 78.234381 110.058337 
L 78.234381 244.115312 
L 84.349944 244.115312 
L 84.349944 56.655342 
L 90.465507 56.655342 
L 90.465507 194.523435 
L 96.58107 194.523435 
L 96.58107 231.732779 
L 102.696633 231.732779 
L 102.696633 226.153605 
L 108.812196 226.153605 
L 108.812196 234.139683 
L 114.92776 234.139683 
L 114.92776 239.706536 
L 121.043323 239.706536 
L 121.043323 242.425187 
L 127.158886 242.425187 
L 127.158886 242.807127 
L 133.274449 242.807127 
L 133.274449 243.219268 
L 139.390012 243.219268 
L 139.390012 243.643146 
L 145.505575 243.643146 
L 145.505575 243.837446 
L 151.621138 243.837446 
L 151.621138 243.908922 
L 157.736701 243.908922 
L 157.736701 243.983817 
L 163.852264 243.983817 
L 163.852264 244.025066 
L 169.967827 244.025066 
L 169.967827 244.063676 
L 176.08339 244.063676 
L 176.08339 244.082793 
L 182.198953 244.082793 
L 182.198953 244.094077 
L 188.314516 244.094077 
L 188.314516 244.104722 
L 194.43008 244.104722 
L 194.43008 244.108904 
L 200.545643 244.108904 
L 200.545643 244.112359 
L 206.661206 244.112359 
L 206.661206 244.113774 
L 212.776769 244.113774 
L 212.776769 244.114514 
L 218.892332 244.114514 
L 218.892332 244.114963 
L 225.007895 244.114963 
L 225.007895 244.115221 
L 231.123458 244.115221 
L 231.123458 244.115211 
L 237.239021 244.115211 
L 237.239021 244.115312 
L 243.354584 244.115312 
L 243.354584 244.115312 
L 249.470147 244.115312 
L 249.470147 244.115305 
L 255.58571 244.115305 
L 255.58571 244.115312 
L 261.701273 244.115312 
L 261.701273 244.115312 
L 267.816837 244.115312 
L 267.816837 244.115312 
L 273.9324 244.115312 
L 273.9324 244.115312 
L 280.047963 244.115312 
L 280.047963 244.115312 
L 286.163526 244.115312 
L 286.163526 244.115312 
L 292.279089 244.115312 
L 292.279089 244.115312 
L 298.394652 244.115312 
L 298.394652 244.115312 
" clip-path="url(#pa93ac5e7b5)" style="fill: none; stroke: #4477aa; stroke-width: 1.6; stroke-linejoin: miter"/>
   </g>
   <g id="patch_4">
    <path d="M 59.887692 244.115312 
L 59.887692 219.339287 
L 66.003255 219.339287 
L 66.003255 244.115312 
L 72.118818 244.115312 
L 72.118818 171.02076 
L 78.234381 171.02076 
L 78.234381 244.115312 
L 84.349944 244.115312 
L 84.349944 174.104301 
L 90.465507 174.104301 
L 90.465507 215.887526 
L 96.58107 215.887526 
L 96.58107 235.325106 
L 102.696633 235.325106 
L 102.696633 222.797426 
L 108.812196 222.797426 
L 108.812196 229.3077 
L 114.92776 229.3077 
L 114.92776 235.762486 
L 121.043323 235.762486 
L 121.043323 240.487149 
L 127.158886 240.487149 
L 127.158886 239.197948 
L 133.274449 239.197948 
L 133.274449 239.586002 
L 139.390012 239.586002 
L 139.390012 241.436689 
L 145.505575 241.436689 
L 145.505575 242.463553 
L 151.621138 242.463553 
L 151.621138 242.537662 
L 157.736701 242.537662 
L 157.736701 242.957696 
L 163.852264 242.957696 
L 163.852264 243.239447 
L 169.967827 243.239447 
L 169.967827 243.69369 
L 176.08339 243.69369 
L 176.08339 243.868443 
L 182.198953 243.868443 
L 182.198953 243.977783 
L 188.314516 243.977783 
L 188.314516 244.034279 
L 194.43008 244.034279 
L 194.43008 244.067561 
L 200.545643 244.067561 
L 200.545643 244.089802 
L 206.661206 244.089802 
L 206.661206 244.101257 
L 212.776769 244.101257 
L 212.776769 244.105141 
L 218.892332 244.105141 
L 218.892332 244.111207 
L 225.007895 244.111207 
L 225.007895 244.113571 
L 231.123458 244.113571 
L 231.123458 244.114357 
L 237.239021 244.114357 
L 237.239021 244.114811 
L 243.354584 244.114811 
L 243.354584 244.115115 
L 249.470147 244.115115 
L 249.470147 244.115241 
L 255.58571 244.115241 
L 255.58571 244.115265 
L 261.701273 244.115265 
L 261.701273 244.115298 
L 267.816837 244.115298 
L 267.816837 244.115301 
L 273.9324 244.115301 
L 273.9324 244.115308 
L 280.047963 244.115308 
L 280.047963 244.115309 
L 286.163526 244.115309 
L 286.163526 244.11531 
L 292.279089 244.11531 
L 292.279089 244.11531 
L 298.394652 244.11531 
L 298.394652 244.115312 
" clip-path="url(#pa93ac5e7b5)" style="fill: none; stroke: #cc6677; stroke-width: 1.6; stroke-linejoin: miter"/>
   </g>
   <g id="patch_5">
    <path d="M 47.962344 244.115312 
L 47.962344 47.282344 
" style="fill: none; stroke: #000000; stroke-width: 0.8; stroke-linejoin: miter; stroke-linecap: square"/>
   </g>
   <g id="patch_6">
    <path d="M 310.32 244.115312 
L 310.32 47.282344 
" style="fill: none; stroke: #000000; stroke-width: 0.8; stroke-linejoin: miter; stroke-linecap: square"/>
   </g>
   <g id="patch_7">
    <path d="M 47.962344 244.115312 
L 310.32 244.115312 
" style="fill: none; stroke: #000000; stroke-width: 0.8; stroke-linejoin: miter; stroke-linecap: square"/>
   </g>
   <g id="patch_8">
    <path d="M 47.962344 47.282344 
L 310.32 47.282344 
" style="fill: none; stroke: #000000; stroke-width: 0.8; stroke-linejoin: miter; stroke-linecap: square"/>
   </g>
   <g id="text_14">
    <!-- Unit-count distribution by mass -->
    <g transform="translate(84.791172 41.282344) scale(0.12 -0.12)">
     <defs>
      <path id="DejaVuSans-10" d="M 313 2009 
L 1997 2009 
L 1997 1497 
L 313 1497 
L 313 2009 
z
" transform="scale(0.015625)"/>
      <path id="DejaVuSans-46" d="M 3122 3366 
L 3122 2828 
Q 2878 2963 2633 3030 
Q 2388 3097 2138 3097 
Q 1578 3097 1268 2742 
Q 959 2388 959 1747 
Q 959 1106 1268 751 
Q 1578 397 2138 397 
Q 2388 397 2633 464 
Q 2878 531 3122 666 
L 3122 134 
Q 2881 22 2623 -34 
Q 2366 -91 2075 -91 
Q 1284 -91 818 406 
Q 353 903 353 1747 
Q 353 2603 823 3093 
Q 1294 3584 2113 3584 
Q 2378 3584 2631 3529 
Q 2884 3475 3122 3366 
z
" transform="scale(0.015625)"/>
      <path id="DejaVuSans-55" d="M 2631 2963 
Q 2534 3019 2420 3045 
Q 2306 3072 2169 3072 
Q 1681 3072 1420 2755 
Q 1159 2438 1159 1844 
L 1159 0 
L 581 0 
L 581 3500 
L 1159 3500 
L 1159 2956 
Q 1341 3275 1631 3429 
Q 1922 3584 2338 3584 
Q 2397 3584 2469 3576 
Q 2541 3569 2628 3553 
L 2631 2963 
z
" transform="scale(0.015625)"/>
      <path id="DejaVuSans-45" d="M 3116 1747 
Q 3116 2381 2855 2742 
Q 2594 3103 2138 3103 
Q 1681 3103 1420 2742 
Q 1159 2381 1159 1747 
Q 1159 1113 1420 752 
Q 1681 391 2138 391 
Q 2594 391 2855 752 
Q 3116 1113 3116 1747 
z
M 1159 2969 
Q 1341 3281 1617 3432 
Q 1894 3584 2278 3584 
Q 2916 3584 3314 3078 
Q 3713 2572 3713 1747 
Q 3713 922 3314 415 
Q 2916 -91 2278 -91 
Q 1894 -91 1617 61 
Q 1341 213 1159 525 
L 1159 0 
L 581 0 
L 581 4863 
L 1159 4863 
L 1159 2969 
z
" transform="scale(0.015625)"/>
      <path id="DejaVuSans-50" d="M 3328 2828 
Q 3544 3216 3844 3400 
Q 4144 3584 4550 3584 
Q 5097 3584 5394 3201 
Q 5691 2819 5691 2113 
L 5691 0 
L 5113 0 
L 5113 2094 
Q 5113 2597 4934 2840 
Q 4756 3084 4391 3084 
Q 3944 3084 3684 2787 
Q 3425 2491 3425 1978 
L 3425 0 
L 2847 0 
L 2847 2094 
Q 2847 2600 2669 2842 
Q 2491 3084 2119 3084 
Q 1678 3084 1418 2786 
Q 1159 2488 1159 1978 
L 1159 0 
L 581 0 
L 581 3500 
L 1159 3500 
L 1159 2956 
Q 1356 3278 1631 3431 
Q 1906 3584 2284 3584 
Q 2666 3584 2933 3390 
Q 3200 3197 3328 2828 
z
" transform="scale(0.015625)"/>
     </defs>
     <use xlink:href="#DejaVuSans-38"/>
     <use xlink:href="#DejaVuSans-51" transform="translate(73.1875 0)"/>
     <use xlink:href="#DejaVuSans-4c" transform="translate(136.5625 0)"/>
     <use xlink:href="#DejaVuSans-57" transform="translate(164.34375 0)"/>
     <use xlink:href="#DejaVuSans-10" transform="translate(203.546875 0)"/>
     <use xlink:href="#DejaVuSans-46" transform="translate(239.625 0)"/>
     <use xlink:href="#DejaVuSans-52" transform="translate(294.609375 0)"/>
     <use xlink:href="#DejaVuSans-58" transform="translate(355.796875 0)"/>
     <use xlink:href="#DejaVuSans-51" transform="translate(419.171875 0)"/>
     <use xlink:href="#DejaVuSans-57" transform="translate(482.546875 0)"/>
     <use xlink:href="#DejaVuSans-3" transform="translate(521.75 0)"/>
     <use xlink:href="#DejaVuSans-47" transform="translate(553.53125 0)"/>
     <use xlink:href="#DejaVuSans-4c" transform="translate(617.015625 0)"/>
     <use xlink:href="#DejaVuSans-56" transform="translate(644.796875 0)"/>
     <use xlink:href="#DejaVuSans-57" transform="translate(696.890625 0)"/>
     <use xlink:href="#DejaVuSans-55" transform="translate(736.09375 0)"/>
     <use xlink:href="#DejaVuSans-4c" transform="translate(777.203125 0)"/>
     <use xlink:href="#DejaVuSans-45" transform="translate(804.984375 0)"/>
     <use xlink:href="#DejaVuSans-58" transform="translate(868.46875 0)"/>
     <use xlink:href="#DejaVuSans-57" transform="translate(931.84375 0)"/>
     <use xlink:href="#DejaVuSans-4c" transform="translate(971.046875 0)"/>
     <use xlink:href="#DejaVuSans-52" transform="translate(998.828125 0)"/>
     <use xlink:href="#DejaVuSans-51" transform="translate(1060.015625 0)"/>
     <use xlink:href="#DejaVuSans-3" transform="translate(1123.390625 0)"/>
     <use xlink:href="#DejaVuSans-45" transform="translate(1155.171875 0)"/>
     <use xlink:href="#DejaVuSans-5c" transform="translate(1218.65625 0)"/>
     <use xlink:href="#DejaVuSans-3" transform="translate(1277.84375 0)"/>
     <use xlink:href="#DejaVuSans-50" transform="translate(1309.625 0)"/>
     <use xlink:href="#DejaVuSans-44" transform="translate(1407.03125 0)"/>
     <use xlink:href="#DejaVuSans-56" transform="translate(1468.3125 0)"/>
     <use xlink:href="#DejaVuSans-56" transform="translate(1520.40625 0)"/>
    </g>
   </g>
   <g id="legend_1">
    <g id="patch_9">
     <path d="M 232.095 85.283906 
L 303.32 85.283906 
Q 305.32 85.283906 305.32 83.283906 
L 305.32 54.282344 
Q 305.32 52.282344 303.32 52.282344 
L 232.095 52.282344 
Q 230.095 52.282344 230.095 54.282344 
L 230.095 83.283906 
Q 230.095 85.283906 232.095 85.283906 
z
" style="fill: #ffffff; opacity: 0.8; stroke: #cccccc; stroke-linejoin: miter"/>
    </g>
    <g id="patch_10">
     <path d="M 234.095 63.880781 
L 254.095 63.880781 
L 254.095 56.880781 
L 234.095 56.880781 
L 234.095 63.880781 
z
" style="fill: none; stroke: #4477aa; stroke-width: 1.6; stroke-linejoin: miter"/>
    </g>
    <g id="text_15">
     <!-- zero -->
     <g transform="translate(262.095 63.880781) scale(0.1 -0.1)">
      <defs>
       <path id="DejaVuSans-5d" d="M 353 3500 
L 3084 3500 
L 3084 2975 
L 922 459 
L 3084 459 
L 3084 0 
L 275 0 
L 275 525 
L 2438 3041 
L 353 3041 
L 353 3500 
z
" transform="scale(0.015625)"/>
      </defs>
      <use xlink:href="#DejaVuSans-5d"/>
      <use xlink:href="#DejaVuSans-48" transform="translate(52.484375 0)"/>
      <use xlink:href="#DejaVuSans-55" transform="translate(114.015625 0)"/>
      <use xlink:href="#DejaVuSans-52" transform="translate(152.921875 0)"/>
     </g>
    </g>
    <g id="patch_11">
     <path d="M 234.095 78.881562 
L 254.095 78.881562 
L 254.095 71.881562 
L 234.095 71.881562 
L 234.095 78.881562 
z
" style="fill: none; stroke: #cc6677; stroke-width: 1.6; stroke-linejoin: miter"/>
    </g>
    <g id="text_16">
     <!-- positive -->
     <g transform="translate(262.095 78.881562) scale(0.1 -0.1)">
      <defs>
       <path id="DejaVuSans-53" d="M 1159 525 
L 1159 -1331 
L 581 -1331 
L 581 3500 
L 1159 3500 
L 1159 2969 
Q 1341 3281 1617 3432 
Q 1894 3584 2278 3584 
Q 2916 3584 3314 3078 
Q 3713 2572 3713 1747 
Q 3713 922 3314 415 
Q 2916 -91 2278 -91 
Q 1894 -91 1617 61 
Q 1341 213 1159 525 
z
M 3116 1747 
Q 3116 2381 2855 2742 
Q 2594 3103 2138 3103 
Q 1681 3103 1420 2742 
Q 1159 2381 1159 1747 
Q 1159 1113 1420 752 
Q 1681 391 2138 391 
Q 2594 391 2855 752 
Q 3116 1113 3116 1747 
z
" transform="scale(0.015625)"/>
       <path id="DejaVuSans-59" d="M 191 3500 
L 800 3500 
L 1894 563 
L 2988 3500 
L 3597 3500 
L 2284 0 
L 1503 0 
L 191 3500 
z
" transform="scale(0.015625)"/>
      </defs>
      <use xlink:href="#DejaVuSans-53"/>
      <use xlink:href="#DejaVuSans-52" transform="translate(63.484375 0)"/>
      <use xlink:href="#DejaVuSans-56" transform="translate(124.671875 0)"/>
      <use xlink:href="#DejaVuSans-4c" transform="translate(176.765625 0)"/>
      <use xlink:href="#DejaVuSans-57" transform="translate(204.546875 0)"/>
      <use xlink:href="#DejaVuSans-4c" transform="translate(243.75 0)"/>
      <use xlink:href="#DejaVuSans-59" transform="translate(271.53125 0)"/>
      <use xlink:href="#DejaVuSans-48" transform="translate(330.71875 0)"/>
     </g>
    </g>
   </g>
  </g>
  <g id="axes_2">
   <g id="patch_12">
    <path d="M 355.402344 244.115312 
L 617.76 244.115312 
L 617.76 47.282344 
L 355.402344 47.282344 
z
" style="fill: #ffffff"/>
   </g>
   <g id="patch_13">
    <path d="M 367.327692 244.115312 
L 417.539683 244.115312 
L 417.539683 56.655342 
L 367.327692 56.655342 
z
" clip-path="url(#p33f9e13466)" style="fill: #4477aa"/>
   </g>
   <g id="patch_14">
    <path d="M 430.092681 244.115312 
L 480.304673 244.115312 
L 480.304673 124.940355 
L 430.092681 124.940355 
z
" clip-path="url(#p33f9e13466)" style="fill: #4477aa"/>
   </g>
   <g id="patch_15">
    <path d="M 492.857671 244.115312 
L 543.069662 244.115312 
L 543.069662 193.477077 
L 492.857671 193.477077 
z
" clip-path="url(#p33f9e13466)" style="fill: #4477aa"/>
   </g>
   <g id="patch_16">
    <path d="M 555.62266 244.115312 
L 605.834652 244.115312 
L 605.834652 203.985823 
L 555.62266 203.985823 
z
" clip-path="url(#p33f9e13466)" style="fill: #4477aa"/>
   </g>
   <g id="matplotlib.axis_3">
    <g id="xtick_41">
     <g id="line2d_47">
      <g>
       <use xlink:href="#m3a37ebcec2" x="392.433688" y="244.115312" style="stroke: #000000; stroke-width: 0.8"/>
      </g>
     </g>
     <g id="text_17">
      <!-- 2-5 -->
      <g transform="translate(384.267281 258.712969) scale(0.1 -0.1)">
       <use xlink:href="#DejaVuSans-15"/>
       <use xlink:href="#DejaVuSans-10" transform="translate(63.625 0)"/>
       <use xlink:href="#DejaVuSans-18" transform="translate(99.703125 0)"/>
      </g>
     </g>
    </g>
    <g id="xtick_42">
     <g id="line2d_48">
      <g>
       <use xlink:href="#m3a37ebcec2" x="455.198677" y="244.115312" style="stroke: #000000; stroke-width: 0.8"/>
      </g>
     </g>
     <g id="text_18">
      <!-- 6-19 -->
      <g transform="translate(443.851021 258.712969) scale(0.1 -0.1)">
       <defs>
        <path id="DejaVuSans-19" d="M 2113 2584 
Q 1688 2584 1439 2293 
Q 1191 2003 1191 1497 
Q 1191 994 1439 701 
Q 1688 409 2113 409 
Q 2538 409 2786 701 
Q 3034 994 3034 1497 
Q 3034 2003 2786 2293 
Q 2538 2584 2113 2584 
z
M 3366 4563 
L 3366 3988 
Q 3128 4100 2886 4159 
Q 2644 4219 2406 4219 
Q 1781 4219 1451 3797 
Q 1122 3375 1075 2522 
Q 1259 2794 1537 2939 
Q 1816 3084 2150 3084 
Q 2853 3084 3261 2657 
Q 3669 2231 3669 1497 
Q 3669 778 3244 343 
Q 2819 -91 2113 -91 
Q 1303 -91 875 529 
Q 447 1150 447 2328 
Q 447 3434 972 4092 
Q 1497 4750 2381 4750 
Q 2619 4750 2861 4703 
Q 3103 4656 3366 4563 
z
" transform="scale(0.015625)"/>
        <path id="DejaVuSans-1c" d="M 703 97 
L 703 672 
Q 941 559 1184 500 
Q 1428 441 1663 441 
Q 2288 441 2617 861 
Q 2947 1281 2994 2138 
Q 2813 1869 2534 1725 
Q 2256 1581 1919 1581 
Q 1219 1581 811 2004 
Q 403 2428 403 3163 
Q 403 3881 828 4315 
Q 1253 4750 1959 4750 
Q 2769 4750 3195 4129 
Q 3622 3509 3622 2328 
Q 3622 1225 3098 567 
Q 2575 -91 1691 -91 
Q 1453 -91 1209 -44 
Q 966 3 703 97 
z
M 1959 2075 
Q 2384 2075 2632 2365 
Q 2881 2656 2881 3163 
Q 2881 3666 2632 3958 
Q 2384 4250 1959 4250 
Q 1534 4250 1286 3958 
Q 1038 3666 1038 3163 
Q 1038 2656 1286 2365 
Q 1534 2075 1959 2075 
z
" transform="scale(0.015625)"/>
       </defs>
       <use xlink:href="#DejaVuSans-19"/>
       <use xlink:href="#DejaVuSans-10" transform="translate(63.625 0)"/>
       <use xlink:href="#DejaVuSans-14" transform="translate(99.703125 0)"/>
       <use xlink:href="#DejaVuSans-1c" transform="translate(163.328125 0)"/>
      </g>
     </g>
    </g>
    <g id="xtick_43">
     <g id="line2d_49">
      <g>
       <use xlink:href="#m3a37ebcec2" x="517.963667" y="244.115312" style="stroke: #000000; stroke-width: 0.8"/>
      </g>
     </g>
     <g id="text_19">
      <!-- 20-49 -->
      <g transform="translate(503.43476 258.712969) scale(0.1 -0.1)">
       <use xlink:href="#DejaVuSans-15"/>
       <use xlink:href="#DejaVuSans-13" transform="translate(63.625 0)"/>
       <use xlink:href="#DejaVuSans-10" transform="translate(127.25 0)"/>
       <use xlink:href="#DejaVuSans-17" transform="translate(163.328125 0)"/>
       <use xlink:href="#DejaVuSans-1c" transform="translate(226.953125 0)"/>
      </g>
     </g>
    </g>
    <g id="xtick_44">
     <g id="line2d_50">
      <g>
       <use xlink:href="#m3a37ebcec2" x="580.728656" y="244.115312" style="stroke: #000000; stroke-width: 0.8"/>
      </g>
     </g>
     <g id="text_20">
      <!-- 50+ -->
      <g transform="translate(570.176312 258.712969) scale(0.1 -0.1)">
       <defs>
        <path id="DejaVuSans-e" d="M 2944 4013 
L 2944 2272 
L 4684 2272 
L 4684 1741 
L 2944 1741 
L 2944 0 
L 2419 0 
L 2419 1741 
L 678 1741 
L 678 2272 
L 2419 2272 
L 2419 4013 
L 2944 4013 
z
" transform="scale(0.015625)"/>
       </defs>
       <use xlink:href="#DejaVuSans-18"/>
       <use xlink:href="#DejaVuSans-13" transform="translate(63.625 0)"/>
       <use xlink:href="#DejaVuSans-e" transform="translate(127.25 0)"/>
      </g>
     </g>
    </g>
   </g>
   <g id="matplotlib.axis_4">
    <g id="ytick_7">
     <g id="line2d_51">
      <g>
       <use xlink:href="#m8fe4672690" x="355.402344" y="244.115312" style="stroke: #000000; stroke-width: 0.8"/>
      </g>
     </g>
     <g id="text_21">
      <!-- 0 -->
      <g transform="translate(342.039844 247.914141) scale(0.1 -0.1)">
       <use xlink:href="#DejaVuSans-13"/>
      </g>
     </g>
    </g>
    <g id="ytick_8">
     <g id="line2d_52">
      <g>
       <use xlink:href="#m8fe4672690" x="355.402344" y="220.196024" style="stroke: #000000; stroke-width: 0.8"/>
      </g>
     </g>
     <g id="text_22">
      <!-- 10 -->
      <g transform="translate(335.677344 223.994853) scale(0.1 -0.1)">
       <use xlink:href="#DejaVuSans-14"/>
       <use xlink:href="#DejaVuSans-13" transform="translate(63.625 0)"/>
      </g>
     </g>
    </g>
    <g id="ytick_9">
     <g id="line2d_53">
      <g>
       <use xlink:href="#m8fe4672690" x="355.402344" y="196.276736" style="stroke: #000000; stroke-width: 0.8"/>
      </g>
     </g>
     <g id="text_23">
      <!-- 20 -->
      <g transform="translate(335.677344 200.075565) scale(0.1 -0.1)">
       <use xlink:href="#DejaVuSans-15"/>
       <use xlink:href="#DejaVuSans-13" transform="translate(63.625 0)"/>
      </g>
     </g>
    </g>
    <g id="ytick_10">
     <g id="line2d_54">
      <g>
       <use xlink:href="#m8fe4672690" x="355.402344" y="172.357448" style="stroke: #000000; stroke-width: 0.8"/>
      </g>
     </g>
     <g id="text_24">
      <!-- 30 -->
      <g transform="translate(335.677344 176.156277) scale(0.1 -0.1)">
       <use xlink:href="#DejaVuSans-16"/>
       <use xlink:href="#DejaVuSans-13" transform="translate(63.625 0)"/>
      </g>
     </g>
    </g>
    <g id="ytick_11">
     <g id="line2d_55">
      <g>
       <use xlink:href="#m8fe4672690" x="355.402344" y="148.43816" style="stroke: #000000; stroke-width: 0.8"/>
      </g>
     </g>
     <g id="text_25">
      <!-- 40 -->
      <g transform="translate(335.677344 152.236989) scale(0.1 -0.1)">
       <use xlink:href="#DejaVuSans-17"/>
       <use xlink:href="#DejaVuSans-13" transform="translate(63.625 0)"/>
      </g>
     </g>
    </g>
    <g id="ytick_12">
     <g id="line2d_56">
      <g>
       <use xlink:href="#m8fe4672690" x="355.402344" y="124.518872" style="stroke: #000000; stroke-width: 0.8"/>
      </g>
     </g>
     <g id="text_26">
      <!-- 50 -->
      <g transform="translate(335.677344 128.317701) scale(0.1 -0.1)">
       <use xlink:href="#DejaVuSans-18"/>
       <use xlink:href="#DejaVuSans-13" transform="translate(63.625 0)"/>
      </g>
     </g>
    </g>
    <g id="ytick_13">
     <g id="line2d_57">
      <g>
       <use xlink:href="#m8fe4672690" x="355.402344" y="100.599584" style="stroke: #000000; stroke-width: 0.8"/>
      </g>
     </g>
     <g id="text_27">
      <!-- 60 -->
      <g transform="translate(335.677344 104.398412) scale(0.1 -0.1)">
       <use xlink:href="#DejaVuSans-19"/>
       <use xlink:href="#DejaVuSans-13" transform="translate(63.625 0)"/>
      </g>
     </g>
    </g>
    <g id="ytick_14">
     <g id="line2d_58">
      <g>
       <use xlink:href="#m8fe4672690" x="355.402344" y="76.680296" style="stroke: #000000; stroke-width: 0.8"/>
      </g>
     </g>
     <g id="text_28">
      <!-- 70 -->
      <g transform="translate(335.677344 80.479124) scale(0.1 -0.1)">
       <defs>
        <path id="DejaVuSans-1a" d="M 525 4666 
L 3525 4666 
L 3525 4397 
L 1831 0 
L 1172 0 
L 2766 4134 
L 525 4134 
L 525 4666 
z
" transform="scale(0.015625)"/>
       </defs>
       <use xlink:href="#DejaVuSans-1a"/>
       <use xlink:href="#DejaVuSans-13" transform="translate(63.625 0)"/>
      </g>
     </g>
    </g>
    <g id="ytick_15">
     <g id="line2d_59">
      <g>
       <use xlink:href="#m8fe4672690" x="355.402344" y="52.761008" style="stroke: #000000; stroke-width: 0.8"/>
      </g>
     </g>
     <g id="text_29">
      <!-- 80 -->
      <g transform="translate(335.677344 56.559836) scale(0.1 -0.1)">
       <defs>
        <path id="DejaVuSans-1b" d="M 2034 2216 
Q 1584 2216 1326 1975 
Q 1069 1734 1069 1313 
Q 1069 891 1326 650 
Q 1584 409 2034 409 
Q 2484 409 2743 651 
Q 3003 894 3003 1313 
Q 3003 1734 2745 1975 
Q 2488 2216 2034 2216 
z
M 1403 2484 
Q 997 2584 770 2862 
Q 544 3141 544 3541 
Q 544 4100 942 4425 
Q 1341 4750 2034 4750 
Q 2731 4750 3128 4425 
Q 3525 4100 3525 3541 
Q 3525 3141 3298 2862 
Q 3072 2584 2669 2484 
Q 3125 2378 3379 2068 
Q 3634 1759 3634 1313 
Q 3634 634 3220 271 
Q 2806 -91 2034 -91 
Q 1263 -91 848 271 
Q 434 634 434 1313 
Q 434 1759 690 2068 
Q 947 2378 1403 2484 
z
M 1172 3481 
Q 1172 3119 1398 2916 
Q 1625 2713 2034 2713 
Q 2441 2713 2670 2916 
Q 2900 3119 2900 3481 
Q 2900 3844 2670 4047 
Q 2441 4250 2034 4250 
Q 1625 4250 1398 4047 
Q 1172 3844 1172 3481 
z
" transform="scale(0.015625)"/>
       </defs>
       <use xlink:href="#DejaVuSans-1b"/>
       <use xlink:href="#DejaVuSans-13" transform="translate(63.625 0)"/>
      </g>
     </g>
    </g>
    <g id="text_30">
     <!-- % of buildings with zero 311 -->
     <g transform="translate(329.275 216.702734) rotate(-90) scale(0.1 -0.1)">
      <defs>
       <path id="DejaVuSans-8" d="M 4653 2053 
Q 4381 2053 4226 1822 
Q 4072 1591 4072 1178 
Q 4072 772 4226 539 
Q 4381 306 4653 306 
Q 4919 306 5073 539 
Q 5228 772 5228 1178 
Q 5228 1588 5073 1820 
Q 4919 2053 4653 2053 
z
M 4653 2450 
Q 5147 2450 5437 2106 
Q 5728 1763 5728 1178 
Q 5728 594 5436 251 
Q 5144 -91 4653 -91 
Q 4153 -91 3862 251 
Q 3572 594 3572 1178 
Q 3572 1766 3864 2108 
Q 4156 2450 4653 2450 
z
M 1428 4353 
Q 1159 4353 1004 4120 
Q 850 3888 850 3481 
Q 850 3069 1003 2837 
Q 1156 2606 1428 2606 
Q 1700 2606 1854 2837 
Q 2009 3069 2009 3481 
Q 2009 3884 1853 4118 
Q 1697 4353 1428 4353 
z
M 4250 4750 
L 4750 4750 
L 1831 -91 
L 1331 -91 
L 4250 4750 
z
M 1428 4750 
Q 1922 4750 2215 4408 
Q 2509 4066 2509 3481 
Q 2509 2891 2217 2550 
Q 1925 2209 1428 2209 
Q 931 2209 642 2551 
Q 353 2894 353 3481 
Q 353 4063 643 4406 
Q 934 4750 1428 4750 
z
" transform="scale(0.015625)"/>
       <path id="DejaVuSans-49" d="M 2375 4863 
L 2375 4384 
L 1825 4384 
Q 1516 4384 1395 4259 
Q 1275 4134 1275 3809 
L 1275 3500 
L 2222 3500 
L 2222 3053 
L 1275 3053 
L 1275 0 
L 697 0 
L 697 3053 
L 147 3053 
L 147 3500 
L 697 3500 
L 697 3744 
Q 697 4328 969 4595 
Q 1241 4863 1831 4863 
L 2375 4863 
z
" transform="scale(0.015625)"/>
       <path id="DejaVuSans-5a" d="M 269 3500 
L 844 3500 
L 1563 769 
L 2278 3500 
L 2956 3500 
L 3675 769 
L 4391 3500 
L 4966 3500 
L 4050 0 
L 3372 0 
L 2619 2869 
L 1863 0 
L 1184 0 
L 269 3500 
z
" transform="scale(0.015625)"/>
       <path id="DejaVuSans-4b" d="M 3513 2113 
L 3513 0 
L 2938 0 
L 2938 2094 
Q 2938 2591 2744 2837 
Q 2550 3084 2163 3084 
Q 1697 3084 1428 2787 
Q 1159 2491 1159 1978 
L 1159 0 
L 581 0 
L 581 4863 
L 1159 4863 
L 1159 2956 
Q 1366 3272 1645 3428 
Q 1925 3584 2291 3584 
Q 2894 3584 3203 3211 
Q 3513 2838 3513 2113 
z
" transform="scale(0.015625)"/>
      </defs>
      <use xlink:href="#DejaVuSans-8"/>
      <use xlink:href="#DejaVuSans-3" transform="translate(95.015625 0)"/>
      <use xlink:href="#DejaVuSans-52" transform="translate(126.796875 0)"/>
      <use xlink:href="#DejaVuSans-49" transform="translate(187.984375 0)"/>
      <use xlink:href="#DejaVuSans-3" transform="translate(223.1875 0)"/>
      <use xlink:href="#DejaVuSans-45" transform="translate(254.96875 0)"/>
      <use xlink:href="#DejaVuSans-58" transform="translate(318.453125 0)"/>
      <use xlink:href="#DejaVuSans-4c" transform="translate(381.828125 0)"/>
      <use xlink:href="#DejaVuSans-4f" transform="translate(409.609375 0)"/>
      <use xlink:href="#DejaVuSans-47" transform="translate(437.390625 0)"/>
      <use xlink:href="#DejaVuSans-4c" transform="translate(500.875 0)"/>
      <use xlink:href="#DejaVuSans-51" transform="translate(528.65625 0)"/>
      <use xlink:href="#DejaVuSans-4a" transform="translate(592.03125 0)"/>
      <use xlink:href="#DejaVuSans-56" transform="translate(655.515625 0)"/>
      <use xlink:href="#DejaVuSans-3" transform="translate(707.609375 0)"/>
      <use xlink:href="#DejaVuSans-5a" transform="translate(739.390625 0)"/>
      <use xlink:href="#DejaVuSans-4c" transform="translate(821.171875 0)"/>
      <use xlink:href="#DejaVuSans-57" transform="translate(848.953125 0)"/>
      <use xlink:href="#DejaVuSans-4b" transform="translate(888.15625 0)"/>
      <use xlink:href="#DejaVuSans-3" transform="translate(951.53125 0)"/>
      <use xlink:href="#DejaVuSans-5d" transform="translate(983.3125 0)"/>
      <use xlink:href="#DejaVuSans-48" transform="translate(1035.796875 0)"/>
      <use xlink:href="#DejaVuSans-55" transform="translate(1097.328125 0)"/>
      <use xlink:href="#DejaVuSans-52" transform="translate(1136.234375 0)"/>
      <use xlink:href="#DejaVuSans-3" transform="translate(1197.421875 0)"/>
      <use xlink:href="#DejaVuSans-16" transform="translate(1229.203125 0)"/>
      <use xlink:href="#DejaVuSans-14" transform="translate(1292.828125 0)"/>
      <use xlink:href="#DejaVuSans-14" transform="translate(1356.453125 0)"/>
     </g>
    </g>
   </g>
   <g id="patch_17">
    <path d="M 355.402344 244.115312 
L 355.402344 47.282344 
" style="fill: none; stroke: #000000; stroke-width: 0.8; stroke-linejoin: miter; stroke-linecap: square"/>
   </g>
   <g id="patch_18">
    <path d="M 617.76 244.115312 
L 617.76 47.282344 
" style="fill: none; stroke: #000000; stroke-width: 0.8; stroke-linejoin: miter; stroke-linecap: square"/>
   </g>
   <g id="patch_19">
    <path d="M 355.402344 244.115312 
L 617.76 244.115312 
" style="fill: none; stroke: #000000; stroke-width: 0.8; stroke-linejoin: miter; stroke-linecap: square"/>
   </g>
   <g id="patch_20">
    <path d="M 355.402344 47.282344 
L 617.76 47.282344 
" style="fill: none; stroke: #000000; stroke-width: 0.8; stroke-linejoin: miter; stroke-linecap: square"/>
   </g>
   <g id="text_31">
    <!-- Zero-311 share by unit class -->
    <g transform="translate(400.907734 41.282344) scale(0.12 -0.12)">
     <defs>
      <path id="DejaVuSans-3d" d="M 359 4666 
L 4025 4666 
L 4025 4184 
L 1075 531 
L 4097 531 
L 4097 0 
L 288 0 
L 288 481 
L 3238 4134 
L 359 4134 
L 359 4666 
z
" transform="scale(0.015625)"/>
     </defs>
     <use xlink:href="#DejaVuSans-3d"/>
     <use xlink:href="#DejaVuSans-48" transform="translate(68.5 0)"/>
     <use xlink:href="#DejaVuSans-55" transform="translate(130.03125 0)"/>
     <use xlink:href="#DejaVuSans-52" transform="translate(168.9375 0)"/>
     <use xlink:href="#DejaVuSans-10" transform="translate(231.984375 0)"/>
     <use xlink:href="#DejaVuSans-16" transform="translate(268.0625 0)"/>
     <use xlink:href="#DejaVuSans-14" transform="translate(331.6875 0)"/>
     <use xlink:href="#DejaVuSans-14" transform="translate(395.3125 0)"/>
     <use xlink:href="#DejaVuSans-3" transform="translate(458.9375 0)"/>
     <use xlink:href="#DejaVuSans-56" transform="translate(490.71875 0)"/>
     <use xlink:href="#DejaVuSans-4b" transform="translate(542.8125 0)"/>
     <use xlink:href="#DejaVuSans-44" transform="translate(606.1875 0)"/>
     <use xlink:href="#DejaVuSans-55" transform="translate(667.46875 0)"/>
     <use xlink:href="#DejaVuSans-48" transform="translate(706.375 0)"/>
     <use xlink:href="#DejaVuSans-3" transform="translate(767.90625 0)"/>
     <use xlink:href="#DejaVuSans-45" transform="translate(799.6875 0)"/>
     <use xlink:href="#DejaVuSans-5c" transform="translate(863.171875 0)"/>
     <use xlink:href="#DejaVuSans-3" transform="translate(922.359375 0)"/>
     <use xlink:href="#DejaVuSans-58" transform="translate(954.140625 0)"/>
     <use xlink:href="#DejaVuSans-51" transform="translate(1017.515625 0)"/>
     <use xlink:href="#DejaVuSans-4c" transform="translate(1080.890625 0)"/>
     <use xlink:href="#DejaVuSans-57" transform="translate(1108.671875 0)"/>
     <use xlink:href="#DejaVuSans-3" transform="translate(1147.875 0)"/>
     <use xlink:href="#DejaVuSans-46" transform="translate(1179.65625 0)"/>
     <use xlink:href="#DejaVuSans-4f" transform="translate(1234.640625 0)"/>
     <use xlink:href="#DejaVuSans-44" transform="translate(1262.421875 0)"/>
     <use xlink:href="#DejaVuSans-56" transform="translate(1323.703125 0)"/>
     <use xlink:href="#DejaVuSans-56" transform="translate(1375.796875 0)"/>
    </g>
   </g>
  </g>
  <g id="axes_3">
   <g id="patch_21">
    <path d="M 662.842344 244.115312 
L 925.2 244.115312 
L 925.2 47.282344 
L 662.842344 47.282344 
z
" style="fill: #ffffff"/>
   </g>
   <g id="matplotlib.axis_5">
    <g id="xtick_45">
     <g id="line2d_60">
      <g>
       <use xlink:href="#m3a37ebcec2" x="674.767692" y="244.115312" style="stroke: #000000; stroke-width: 0.8"/>
      </g>
     </g>
     <g id="text_32">
      <!-- 0.0 -->
      <g transform="translate(666.816129 258.712969) scale(0.1 -0.1)">
       <use xlink:href="#DejaVuSans-13"/>
       <use xlink:href="#DejaVuSans-11" transform="translate(63.625 0)"/>
       <use xlink:href="#DejaVuSans-13" transform="translate(95.40625 0)"/>
      </g>
     </g>
    </g>
    <g id="xtick_46">
     <g id="line2d_61">
      <g>
       <use xlink:href="#m3a37ebcec2" x="733.67022" y="244.115312" style="stroke: #000000; stroke-width: 0.8"/>
      </g>
     </g>
     <g id="text_33">
      <!-- 0.2 -->
      <g transform="translate(725.718658 258.712969) scale(0.1 -0.1)">
       <use xlink:href="#DejaVuSans-13"/>
       <use xlink:href="#DejaVuSans-11" transform="translate(63.625 0)"/>
       <use xlink:href="#DejaVuSans-15" transform="translate(95.40625 0)"/>
      </g>
     </g>
    </g>
    <g id="xtick_47">
     <g id="line2d_62">
      <g>
       <use xlink:href="#m3a37ebcec2" x="792.572749" y="244.115312" style="stroke: #000000; stroke-width: 0.8"/>
      </g>
     </g>
     <g id="text_34">
      <!-- 0.4 -->
      <g transform="translate(784.621187 258.712969) scale(0.1 -0.1)">
       <use xlink:href="#DejaVuSans-13"/>
       <use xlink:href="#DejaVuSans-11" transform="translate(63.625 0)"/>
       <use xlink:href="#DejaVuSans-17" transform="translate(95.40625 0)"/>
      </g>
     </g>
    </g>
    <g id="xtick_48">
     <g id="line2d_63">
      <g>
       <use xlink:href="#m3a37ebcec2" x="851.475278" y="244.115312" style="stroke: #000000; stroke-width: 0.8"/>
      </g>
     </g>
     <g id="text_35">
      <!-- 0.6 -->
      <g transform="translate(843.523715 258.712969) scale(0.1 -0.1)">
       <use xlink:href="#DejaVuSans-13"/>
       <use xlink:href="#DejaVuSans-11" transform="translate(63.625 0)"/>
       <use xlink:href="#DejaVuSans-19" transform="translate(95.40625 0)"/>
      </g>
     </g>
    </g>
    <g id="xtick_49">
     <g id="line2d_64">
      <g>
       <use xlink:href="#m3a37ebcec2" x="910.377806" y="244.115312" style="stroke: #000000; stroke-width: 0.8"/>
      </g>
     </g>
     <g id="text_36">
      <!-- 0.8 -->
      <g transform="translate(902.426244 258.712969) scale(0.1 -0.1)">
       <use xlink:href="#DejaVuSans-13"/>
       <use xlink:href="#DejaVuSans-11" transform="translate(63.625 0)"/>
       <use xlink:href="#DejaVuSans-1b" transform="translate(95.40625 0)"/>
      </g>
     </g>
    </g>
    <g id="text_37">
     <!-- tract LEP household share (C16002) -->
     <g transform="translate(703.887578 272.71375) scale(0.1 -0.1)">
      <defs>
       <path id="DejaVuSans-28" d="M 628 4666 
L 3578 4666 
L 3578 4134 
L 1259 4134 
L 1259 2753 
L 3481 2753 
L 3481 2222 
L 1259 2222 
L 1259 531 
L 3634 531 
L 3634 0 
L 628 0 
L 628 4666 
z
" transform="scale(0.015625)"/>
       <path id="DejaVuSans-26" d="M 4122 4306 
L 4122 3641 
Q 3803 3938 3442 4084 
Q 3081 4231 2675 4231 
Q 1875 4231 1450 3742 
Q 1025 3253 1025 2328 
Q 1025 1406 1450 917 
Q 1875 428 2675 428 
Q 3081 428 3442 575 
Q 3803 722 4122 1019 
L 4122 359 
Q 3791 134 3420 21 
Q 3050 -91 2638 -91 
Q 1578 -91 968 557 
Q 359 1206 359 2328 
Q 359 3453 968 4101 
Q 1578 4750 2638 4750 
Q 3056 4750 3426 4639 
Q 3797 4528 4122 4306 
z
" transform="scale(0.015625)"/>
      </defs>
      <use xlink:href="#DejaVuSans-57"/>
      <use xlink:href="#DejaVuSans-55" transform="translate(39.203125 0)"/>
      <use xlink:href="#DejaVuSans-44" transform="translate(80.3125 0)"/>
      <use xlink:href="#DejaVuSans-46" transform="translate(141.59375 0)"/>
      <use xlink:href="#DejaVuSans-57" transform="translate(196.578125 0)"/>
      <use xlink:href="#DejaVuSans-3" transform="translate(235.78125 0)"/>
      <use xlink:href="#DejaVuSans-2f" transform="translate(267.5625 0)"/>
      <use xlink:href="#DejaVuSans-28" transform="translate(323.28125 0)"/>
      <use xlink:href="#DejaVuSans-33" transform="translate(386.46875 0)"/>
      <use xlink:href="#DejaVuSans-3" transform="translate(446.765625 0)"/>
      <use xlink:href="#DejaVuSans-4b" transform="translate(478.546875 0)"/>
      <use xlink:href="#DejaVuSans-52" transform="translate(541.921875 0)"/>
      <use xlink:href="#DejaVuSans-58" transform="translate(603.109375 0)"/>
      <use xlink:href="#DejaVuSans-56" transform="translate(666.484375 0)"/>
      <use xlink:href="#DejaVuSans-48" transform="translate(718.578125 0)"/>
      <use xlink:href="#DejaVuSans-4b" transform="translate(780.109375 0)"/>
      <use xlink:href="#DejaVuSans-52" transform="translate(843.484375 0)"/>
      <use xlink:href="#DejaVuSans-4f" transform="translate(904.671875 0)"/>
      <use xlink:href="#DejaVuSans-47" transform="translate(932.453125 0)"/>
      <use xlink:href="#DejaVuSans-3" transform="translate(995.9375 0)"/>
      <use xlink:href="#DejaVuSans-56" transform="translate(1027.71875 0)"/>
      <use xlink:href="#DejaVuSans-4b" transform="translate(1079.8125 0)"/>
      <use xlink:href="#DejaVuSans-44" transform="translate(1143.1875 0)"/>
      <use xlink:href="#DejaVuSans-55" transform="translate(1204.46875 0)"/>
      <use xlink:href="#DejaVuSans-48" transform="translate(1243.375 0)"/>
      <use xlink:href="#DejaVuSans-3" transform="translate(1304.90625 0)"/>
      <use xlink:href="#DejaVuSans-b" transform="translate(1336.6875 0)"/>
      <use xlink:href="#DejaVuSans-26" transform="translate(1375.703125 0)"/>
      <use xlink:href="#DejaVuSans-14" transform="translate(1445.53125 0)"/>
      <use xlink:href="#DejaVuSans-19" transform="translate(1509.15625 0)"/>
      <use xlink:href="#DejaVuSans-13" transform="translate(1572.78125 0)"/>
      <use xlink:href="#DejaVuSans-13" transform="translate(1636.40625 0)"/>
      <use xlink:href="#DejaVuSans-15" transform="translate(1700.03125 0)"/>
      <use xlink:href="#DejaVuSans-c" transform="translate(1763.65625 0)"/>
     </g>
    </g>
   </g>
   <g id="matplotlib.axis_6">
    <g id="ytick_16">
     <g id="line2d_65">
      <g>
       <use xlink:href="#m8fe4672690" x="662.842344" y="244.115312" style="stroke: #000000; stroke-width: 0.8"/>
      </g>
     </g>
     <g id="text_38">
      <!-- 0 -->
      <g transform="translate(649.479844 247.914141) scale(0.1 -0.1)">
       <use xlink:href="#DejaVuSans-13"/>
      </g>
     </g>
    </g>
    <g id="ytick_17">
     <g id="line2d_66">
      <g>
       <use xlink:href="#m8fe4672690" x="662.842344" y="221.354538" style="stroke: #000000; stroke-width: 0.8"/>
      </g>
     </g>
     <g id="text_39">
      <!-- 1 -->
      <g transform="translate(649.479844 225.153367) scale(0.1 -0.1)">
       <use xlink:href="#DejaVuSans-14"/>
      </g>
     </g>
    </g>
    <g id="ytick_18">
     <g id="line2d_67">
      <g>
       <use xlink:href="#m8fe4672690" x="662.842344" y="198.593764" style="stroke: #000000; stroke-width: 0.8"/>
      </g>
     </g>
     <g id="text_40">
      <!-- 2 -->
      <g transform="translate(649.479844 202.392592) scale(0.1 -0.1)">
       <use xlink:href="#DejaVuSans-15"/>
      </g>
     </g>
    </g>
    <g id="ytick_19">
     <g id="line2d_68">
      <g>
       <use xlink:href="#m8fe4672690" x="662.842344" y="175.83299" style="stroke: #000000; stroke-width: 0.8"/>
      </g>
     </g>
     <g id="text_41">
      <!-- 3 -->
      <g transform="translate(649.479844 179.631818) scale(0.1 -0.1)">
       <use xlink:href="#DejaVuSans-16"/>
      </g>
     </g>
    </g>
    <g id="ytick_20">
     <g id="line2d_69">
      <g>
       <use xlink:href="#m8fe4672690" x="662.842344" y="153.072216" style="stroke: #000000; stroke-width: 0.8"/>
      </g>
     </g>
     <g id="text_42">
      <!-- 4 -->
      <g transform="translate(649.479844 156.871044) scale(0.1 -0.1)">
       <use xlink:href="#DejaVuSans-17"/>
      </g>
     </g>
    </g>
    <g id="ytick_21">
     <g id="line2d_70">
      <g>
       <use xlink:href="#m8fe4672690" x="662.842344" y="130.311442" style="stroke: #000000; stroke-width: 0.8"/>
      </g>
     </g>
     <g id="text_43">
      <!-- 5 -->
      <g transform="translate(649.479844 134.11027) scale(0.1 -0.1)">
       <use xlink:href="#DejaVuSans-18"/>
      </g>
     </g>
    </g>
    <g id="ytick_22">
     <g id="line2d_71">
      <g>
       <use xlink:href="#m8fe4672690" x="662.842344" y="107.550668" style="stroke: #000000; stroke-width: 0.8"/>
      </g>
     </g>
     <g id="text_44">
      <!-- 6 -->
      <g transform="translate(649.479844 111.349496) scale(0.1 -0.1)">
       <use xlink:href="#DejaVuSans-19"/>
      </g>
     </g>
    </g>
    <g id="ytick_23">
     <g id="line2d_72">
      <g>
       <use xlink:href="#m8fe4672690" x="662.842344" y="84.789894" style="stroke: #000000; stroke-width: 0.8"/>
      </g>
     </g>
     <g id="text_45">
      <!-- 7 -->
      <g transform="translate(649.479844 88.588722) scale(0.1 -0.1)">
       <use xlink:href="#DejaVuSans-1a"/>
      </g>
     </g>
    </g>
    <g id="ytick_24">
     <g id="line2d_73">
      <g>
       <use xlink:href="#m8fe4672690" x="662.842344" y="62.02912" style="stroke: #000000; stroke-width: 0.8"/>
      </g>
     </g>
     <g id="text_46">
      <!-- 8 -->
      <g transform="translate(649.479844 65.827948) scale(0.1 -0.1)">
       <use xlink:href="#DejaVuSans-1b"/>
      </g>
     </g>
    </g>
    <g id="text_47">
     <!-- density -->
     <g transform="translate(643.0775 164.031641) rotate(-90) scale(0.1 -0.1)">
      <use xlink:href="#DejaVuSans-47"/>
      <use xlink:href="#DejaVuSans-48" transform="translate(63.484375 0)"/>
      <use xlink:href="#DejaVuSans-51" transform="translate(125.015625 0)"/>
      <use xlink:href="#DejaVuSans-56" transform="translate(188.390625 0)"/>
      <use xlink:href="#DejaVuSans-4c" transform="translate(240.484375 0)"/>
      <use xlink:href="#DejaVuSans-57" transform="translate(268.265625 0)"/>
      <use xlink:href="#DejaVuSans-5c" transform="translate(307.46875 0)"/>
     </g>
    </g>
   </g>
   <g id="patch_22">
    <path d="M 674.767692 244.115312 
L 674.767692 56.655342 
L 680.730366 56.655342 
L 680.730366 129.161207 
L 686.69304 129.161207 
L 686.69304 136.216152 
L 692.655714 136.216152 
L 692.655714 159.791921 
L 698.618388 159.791921 
L 698.618388 173.318839 
L 704.581062 173.318839 
L 704.581062 175.897748 
L 710.543736 175.897748 
L 710.543736 184.069232 
L 716.50641 184.069232 
L 716.50641 204.275622 
L 722.469084 204.275622 
L 722.469084 190.037281 
L 728.431758 190.037281 
L 728.431758 210.816762 
L 734.394432 210.816762 
L 734.394432 211.775207 
L 740.357106 211.775207 
L 740.357106 215.065538 
L 746.31978 215.065538 
L 746.31978 215.856009 
L 752.282454 215.856009 
L 752.282454 216.300648 
L 758.245128 216.300648 
L 758.245128 215.747319 
L 764.207802 215.747319 
L 764.207802 218.079206 
L 770.170476 218.079206 
L 770.170476 228.137937 
L 776.13315 228.137937 
L 776.13315 230.558751 
L 782.095824 230.558751 
L 782.095824 230.54887 
L 788.058498 230.54887 
L 788.058498 226.655805 
L 794.021172 226.655805 
L 794.021172 233.038851 
L 799.983846 233.038851 
L 799.983846 231.695052 
L 805.94652 231.695052 
L 805.94652 231.586362 
L 811.909194 231.586362 
L 811.909194 238.937734 
L 817.871868 238.937734 
L 817.871868 237.900242 
L 823.834542 237.900242 
L 823.834542 242.129257 
L 829.797216 242.129257 
L 829.797216 240.222248 
L 835.75989 240.222248 
L 835.75989 239.332969 
L 841.722564 239.332969 
L 841.722564 241.971163 
L 847.685238 241.971163 
L 847.685238 242.475087 
L 853.647912 242.475087 
L 853.647912 243.52246 
L 859.610586 243.52246 
L 859.610586 241.49688 
L 865.57326 241.49688 
L 865.57326 243.670673 
L 871.535934 243.670673 
L 871.535934 241.635213 
L 877.498608 241.635213 
L 877.498608 241.83283 
L 883.461282 241.83283 
L 883.461282 244.115312 
L 889.423956 244.115312 
L 889.423956 244.115312 
L 895.38663 244.115312 
L 895.38663 244.046146 
L 901.349304 244.046146 
L 901.349304 244.115312 
L 907.311978 244.115312 
L 907.311978 243.591626 
L 913.274652 243.591626 
L 913.274652 244.115312 
" clip-path="url(#p0ca8fad0ac)" style="fill: none; stroke: #4477aa; stroke-width: 1.6; stroke-linejoin: miter"/>
   </g>
   <g id="patch_23">
    <path d="M 674.767692 244.115312 
L 674.767692 76.297482 
L 680.730366 76.297482 
L 680.730366 124.603326 
L 686.69304 124.603326 
L 686.69304 144.712546 
L 692.655714 144.712546 
L 692.655714 155.742352 
L 698.618388 155.742352 
L 698.618388 171.866718 
L 704.581062 171.866718 
L 704.581062 177.902847 
L 710.543736 177.902847 
L 710.543736 177.028533 
L 716.50641 177.028533 
L 716.50641 197.036871 
L 722.469084 197.036871 
L 722.469084 186.326525 
L 728.431758 186.326525 
L 728.431758 199.138587 
L 734.394432 199.138587 
L 734.394432 204.165892 
L 740.357106 204.165892 
L 740.357106 209.075501 
L 746.31978 209.075501 
L 746.31978 213.211678 
L 752.282454 213.211678 
L 752.282454 214.84261 
L 758.245128 214.84261 
L 758.245128 212.202855 
L 764.207802 212.202855 
L 764.207802 215.330208 
L 770.170476 215.330208 
L 770.170476 227.217515 
L 776.13315 227.217515 
L 776.13315 233.304085 
L 782.095824 233.304085 
L 782.095824 233.37134 
L 788.058498 233.37134 
L 788.058498 232.900555 
L 794.021172 232.900555 
L 794.021172 237.406635 
L 799.983846 237.406635 
L 799.983846 234.245653 
L 805.94652 234.245653 
L 805.94652 237.019919 
L 811.909194 237.019919 
L 811.909194 239.441096 
L 817.871868 239.441096 
L 817.871868 241.122469 
L 823.834542 241.122469 
L 823.834542 241.76139 
L 829.797216 241.76139 
L 829.797216 241.694135 
L 835.75989 241.694135 
L 835.75989 241.425116 
L 841.722564 241.425116 
L 841.722564 242.904724 
L 847.685238 242.904724 
L 847.685238 242.635704 
L 853.647912 242.635704 
L 853.647912 243.510018 
L 859.610586 243.510018 
L 859.610586 241.795018 
L 865.57326 241.795018 
L 865.57326 243.947175 
L 871.535934 243.947175 
L 871.535934 242.215361 
L 877.498608 242.215361 
L 877.498608 243.056048 
L 883.461282 243.056048 
L 883.461282 244.115312 
L 889.423956 244.115312 
L 889.423956 244.115312 
L 895.38663 244.115312 
L 895.38663 243.577273 
L 901.349304 243.577273 
L 901.349304 244.115312 
L 907.311978 244.115312 
L 907.311978 244.01443 
L 913.274652 244.01443 
L 913.274652 244.115312 
" clip-path="url(#p0ca8fad0ac)" style="fill: none; stroke: #cc6677; stroke-width: 1.6; stroke-linejoin: miter"/>
   </g>
   <g id="patch_24">
    <path d="M 662.842344 244.115312 
L 662.842344 47.282344 
" style="fill: none; stroke: #000000; stroke-width: 0.8; stroke-linejoin: miter; stroke-linecap: square"/>
   </g>
   <g id="patch_25">
    <path d="M 925.2 244.115312 
L 925.2 47.282344 
" style="fill: none; stroke: #000000; stroke-width: 0.8; stroke-linejoin: miter; stroke-linecap: square"/>
   </g>
   <g id="patch_26">
    <path d="M 662.842344 244.115312 
L 925.2 244.115312 
" style="fill: none; stroke: #000000; stroke-width: 0.8; stroke-linejoin: miter; stroke-linecap: square"/>
   </g>
   <g id="patch_27">
    <path d="M 662.842344 47.282344 
L 925.2 47.282344 
" style="fill: none; stroke: #000000; stroke-width: 0.8; stroke-linejoin: miter; stroke-linecap: square"/>
   </g>
   <g id="text_48">
    <!-- Tract LEP share by mass -->
    <g transform="translate(721.300234 41.282344) scale(0.12 -0.12)">
     <use xlink:href="#DejaVuSans-37"/>
     <use xlink:href="#DejaVuSans-55" transform="translate(46.375 0)"/>
     <use xlink:href="#DejaVuSans-44" transform="translate(87.484375 0)"/>
     <use xlink:href="#DejaVuSans-46" transform="translate(148.765625 0)"/>
     <use xlink:href="#DejaVuSans-57" transform="translate(203.75 0)"/>
     <use xlink:href="#DejaVuSans-3" transform="translate(242.953125 0)"/>
     <use xlink:href="#DejaVuSans-2f" transform="translate(274.734375 0)"/>
     <use xlink:href="#DejaVuSans-28" transform="translate(330.453125 0)"/>
     <use xlink:href="#DejaVuSans-33" transform="translate(393.640625 0)"/>
     <use xlink:href="#DejaVuSans-3" transform="translate(453.9375 0)"/>
     <use xlink:href="#DejaVuSans-56" transform="translate(485.71875 0)"/>
     <use xlink:href="#DejaVuSans-4b" transform="translate(537.8125 0)"/>
     <use xlink:href="#DejaVuSans-44" transform="translate(601.1875 0)"/>
     <use xlink:href="#DejaVuSans-55" transform="translate(662.46875 0)"/>
     <use xlink:href="#DejaVuSans-48" transform="translate(701.375 0)"/>
     <use xlink:href="#DejaVuSans-3" transform="translate(762.90625 0)"/>
     <use xlink:href="#DejaVuSans-45" transform="translate(794.6875 0)"/>
     <use xlink:href="#DejaVuSans-5c" transform="translate(858.171875 0)"/>
     <use xlink:href="#DejaVuSans-3" transform="translate(917.359375 0)"/>
     <use xlink:href="#DejaVuSans-50" transform="translate(949.140625 0)"/>
     <use xlink:href="#DejaVuSans-44" transform="translate(1046.546875 0)"/>
     <use xlink:href="#DejaVuSans-56" transform="translate(1107.828125 0)"/>
     <use xlink:href="#DejaVuSans-56" transform="translate(1159.921875 0)"/>
    </g>
   </g>
   <g id="legend_2">
    <g id="patch_28">
     <path d="M 846.975 85.283906 
L 918.2 85.283906 
Q 920.2 85.283906 920.2 83.283906 
L 920.2 54.282344 
Q 920.2 52.282344 918.2 52.282344 
L 846.975 52.282344 
Q 844.975 52.282344 844.975 54.282344 
L 844.975 83.283906 
Q 844.975 85.283906 846.975 85.283906 
z
" style="fill: #ffffff; opacity: 0.8; stroke: #cccccc; stroke-linejoin: miter"/>
    </g>
    <g id="patch_29">
     <path d="M 848.975 63.880781 
L 868.975 63.880781 
L 868.975 56.880781 
L 848.975 56.880781 
L 848.975 63.880781 
z
" style="fill: none; stroke: #4477aa; stroke-width: 1.6; stroke-linejoin: miter"/>
    </g>
    <g id="text_49">
     <!-- zero -->
     <g transform="translate(876.975 63.880781) scale(0.1 -0.1)">
      <use xlink:href="#DejaVuSans-5d"/>
      <use xlink:href="#DejaVuSans-48" transform="translate(52.484375 0)"/>
      <use xlink:href="#DejaVuSans-55" transform="translate(114.015625 0)"/>
      <use xlink:href="#DejaVuSans-52" transform="translate(152.921875 0)"/>
     </g>
    </g>
    <g id="patch_30">
     <path d="M 848.975 78.881562 
L 868.975 78.881562 
L 868.975 71.881562 
L 848.975 71.881562 
L 848.975 78.881562 
z
" style="fill: none; stroke: #cc6677; stroke-width: 1.6; stroke-linejoin: miter"/>
    </g>
    <g id="text_50">
     <!-- positive -->
     <g transform="translate(876.975 78.881562) scale(0.1 -0.1)">
      <use xlink:href="#DejaVuSans-53"/>
      <use xlink:href="#DejaVuSans-52" transform="translate(63.484375 0)"/>
      <use xlink:href="#DejaVuSans-56" transform="translate(124.671875 0)"/>
      <use xlink:href="#DejaVuSans-4c" transform="translate(176.765625 0)"/>
      <use xlink:href="#DejaVuSans-57" transform="translate(204.546875 0)"/>
      <use xlink:href="#DejaVuSans-4c" transform="translate(243.75 0)"/>
      <use xlink:href="#DejaVuSans-59" transform="translate(271.53125 0)"/>
      <use xlink:href="#DejaVuSans-48" transform="translate(330.71875 0)"/>
     </g>
    </g>
   </g>
  </g>
  <g id="text_51">
   <!-- P4 zero-mass structure (descriptive; gates nothing) -->
   <g transform="translate(339.260156 13.358437) scale(0.1 -0.1)">
    <defs>
     <path id="DejaVuSans-1e" d="M 750 3309 
L 1409 3309 
L 1409 2516 
L 750 2516 
L 750 3309 
z
M 750 794 
L 1409 794 
L 1409 256 
L 897 -744 
L 494 -744 
L 750 256 
L 750 794 
z
" transform="scale(0.015625)"/>
    </defs>
    <use xlink:href="#DejaVuSans-33"/>
    <use xlink:href="#DejaVuSans-17" transform="translate(60.296875 0)"/>
    <use xlink:href="#DejaVuSans-3" transform="translate(123.921875 0)"/>
    <use xlink:href="#DejaVuSans-5d" transform="translate(155.703125 0)"/>
    <use xlink:href="#DejaVuSans-48" transform="translate(208.1875 0)"/>
    <use xlink:href="#DejaVuSans-55" transform="translate(269.71875 0)"/>
    <use xlink:href="#DejaVuSans-52" transform="translate(308.625 0)"/>
    <use xlink:href="#DejaVuSans-10" transform="translate(371.671875 0)"/>
    <use xlink:href="#DejaVuSans-50" transform="translate(407.75 0)"/>
    <use xlink:href="#DejaVuSans-44" transform="translate(505.15625 0)"/>
    <use xlink:href="#DejaVuSans-56" transform="translate(566.4375 0)"/>
    <use xlink:href="#DejaVuSans-56" transform="translate(618.53125 0)"/>
    <use xlink:href="#DejaVuSans-3" transform="translate(670.625 0)"/>
    <use xlink:href="#DejaVuSans-56" transform="translate(702.40625 0)"/>
    <use xlink:href="#DejaVuSans-57" transform="translate(754.5 0)"/>
    <use xlink:href="#DejaVuSans-55" transform="translate(793.703125 0)"/>
    <use xlink:href="#DejaVuSans-58" transform="translate(834.8125 0)"/>
    <use xlink:href="#DejaVuSans-46" transform="translate(898.1875 0)"/>
    <use xlink:href="#DejaVuSans-57" transform="translate(953.171875 0)"/>
    <use xlink:href="#DejaVuSans-58" transform="translate(992.375 0)"/>
    <use xlink:href="#DejaVuSans-55" transform="translate(1055.75 0)"/>
    <use xlink:href="#DejaVuSans-48" transform="translate(1094.65625 0)"/>
    <use xlink:href="#DejaVuSans-3" transform="translate(1156.1875 0)"/>
    <use xlink:href="#DejaVuSans-b" transform="translate(1187.96875 0)"/>
    <use xlink:href="#DejaVuSans-47" transform="translate(1226.984375 0)"/>
    <use xlink:href="#DejaVuSans-48" transform="translate(1290.46875 0)"/>
    <use xlink:href="#DejaVuSans-56" transform="translate(1352 0)"/>
    <use xlink:href="#DejaVuSans-46" transform="translate(1404.09375 0)"/>
    <use xlink:href="#DejaVuSans-55" transform="translate(1459.078125 0)"/>
    <use xlink:href="#DejaVuSans-4c" transform="translate(1500.1875 0)"/>
    <use xlink:href="#DejaVuSans-53" transform="translate(1527.96875 0)"/>
    <use xlink:href="#DejaVuSans-57" transform="translate(1591.453125 0)"/>
    <use xlink:href="#DejaVuSans-4c" transform="translate(1630.65625 0)"/>
    <use xlink:href="#DejaVuSans-59" transform="translate(1658.4375 0)"/>
    <use xlink:href="#DejaVuSans-48" transform="translate(1717.625 0)"/>
    <use xlink:href="#DejaVuSans-1e" transform="translate(1779.15625 0)"/>
    <use xlink:href="#DejaVuSans-3" transform="translate(1812.84375 0)"/>
    <use xlink:href="#DejaVuSans-4a" transform="translate(1844.625 0)"/>
    <use xlink:href="#DejaVuSans-44" transform="translate(1908.109375 0)"/>
    <use xlink:href="#DejaVuSans-57" transform="translate(1969.390625 0)"/>
    <use xlink:href="#DejaVuSans-48" transform="translate(2008.59375 0)"/>
    <use xlink:href="#DejaVuSans-56" transform="translate(2070.125 0)"/>
    <use xlink:href="#DejaVuSans-3" transform="translate(2122.21875 0)"/>
    <use xlink:href="#DejaVuSans-51" transform="translate(2154 0)"/>
    <use xlink:href="#DejaVuSans-52" transform="translate(2217.375 0)"/>
    <use xlink:href="#DejaVuSans-57" transform="translate(2278.5625 0)"/>
    <use xlink:href="#DejaVuSans-4b" transform="translate(2317.765625 0)"/>
    <use xlink:href="#DejaVuSans-4c" transform="translate(2381.140625 0)"/>
    <use xlink:href="#DejaVuSans-51" transform="translate(2408.921875 0)"/>
    <use xlink:href="#DejaVuSans-4a" transform="translate(2472.296875 0)"/>
    <use xlink:href="#DejaVuSans-c" transform="translate(2535.78125 0)"/>
   </g>
  </g>
 </g>
 <defs>
  <clipPath id="pa93ac5e7b5">
   <rect x="47.962344" y="47.282344" width="262.357656" height="196.832969"/>
  </clipPath>
  <clipPath id="p33f9e13466">
   <rect x="355.402344" y="47.282344" width="262.357656" height="196.832969"/>
  </clipPath>
  <clipPath id="p0ca8fad0ac">
   <rect x="662.842344" y="47.282344" width="262.357656" height="196.832969"/>
  </clipPath>
 </defs>
</svg>
